<svg width="67" height="69" viewBox="0 0 67 69" fill="none" xmlns="http://www.w3.org/2000/svg">
<path d="M16.1361 16.0437L22.9151 19.3435L22.9122 18.7967C22.9075 18.3196 22.9836 17.8452 23.1371 17.3935C23.1833 17.2684 23.2418 17.1483 23.3117 17.0348C23.3373 16.9674 23.3689 16.9025 23.4061 16.8408C24.1112 15.4836 25.217 14.3765 26.5733 13.6697C27.9295 12.9629 29.4705 12.6908 30.9868 12.8902C32.5031 13.0897 33.9212 13.7512 35.0485 14.7847C36.1758 15.8183 36.9576 17.1738 37.2877 18.6671C37.3639 19.47 37.4827 20.2682 37.6436 21.0585C37.7283 21.5591 37.9312 22.0323 38.2356 22.4387C38.5399 22.8452 38.9368 23.1731 39.3933 23.3953C39.8498 23.6176 40.3528 23.7276 40.8604 23.7164C41.368 23.7052 41.8656 23.573 42.3119 23.3309C43.4401 22.7164 44.3762 22.1976 44.4077 22.1329C45.7842 21.4723 47.3305 21.2507 48.8371 21.4982C50.3437 21.7456 51.7379 22.4501 52.8308 23.5162C53.9237 24.5823 54.6626 25.9586 54.9474 27.4586C55.2321 28.9586 55.049 30.5099 54.4228 31.9024C54.3884 31.9729 54.3512 32.0494 54.314 32.1258C54.2648 32.2495 54.2065 32.3694 54.1394 32.4844C53.8741 32.8824 53.5437 33.233 53.162 33.5213L52.7298 33.8564L59.4971 37.1505C59.8205 36.6916 60.1162 36.2139 60.3826 35.7198C60.4783 35.5533 60.5624 35.3804 60.6344 35.2024C60.7689 34.926 60.9206 34.6144 61.0027 34.3562C62.0223 31.8841 62.338 29.178 61.9148 26.5376C61.4915 23.8972 60.3459 21.4254 58.6047 19.3958C56.8635 17.3663 54.5946 15.8581 52.0493 15.0383C49.5039 14.2185 46.7813 14.1191 44.1829 14.7509C43.9409 14.8149 43.7045 14.8672 43.4714 14.9428C43.3871 14.7126 43.2883 14.4973 43.1893 14.2673C42.0855 11.832 40.3293 9.74958 38.1153 8.25054C35.9012 6.75151 33.3156 5.89429 30.6445 5.77377C27.9734 5.65325 25.3211 6.27412 22.981 7.56767C20.641 8.86122 18.7044 10.777 17.3858 13.103C17.2541 13.3735 17.1139 13.6615 16.9737 13.9496C16.878 14.1161 16.7938 14.289 16.7218 14.467C16.4954 14.9805 16.2998 15.507 16.1361 16.0437Z" fill="#FF917F"/>
<path d="M46.8728 38.3143L41.8457 42.1726L29.7753 51.4313C29.1759 51.8915 28.46 52.1756 27.7081 52.2517C26.9562 52.3278 26.198 52.1929 25.5185 51.8621C24.8389 51.5314 24.265 51.0178 23.8611 50.3791C23.4571 49.7403 23.2391 49.0017 23.2315 48.246L23.0608 33.0287L22.9963 26.692L15.7999 23.189C15.8369 23.367 15.8651 23.548 15.9108 23.723L16.2048 48.3237C16.2282 50.3866 16.8252 52.4024 17.9291 54.1454C19.0329 55.8884 20.6001 57.2898 22.4551 58.1927C24.3101 59.0957 26.3798 59.4646 28.4326 59.2582C30.4854 59.0518 32.4402 58.2782 34.0783 57.0239L53.5601 42.0713C53.7376 41.9905 53.9063 41.898 54.0779 41.8143L46.8728 38.3143Z" fill="#1778F2"/>
</svg>
