<svg width="37" height="38" viewBox="0 0 37 38" fill="none" xmlns="http://www.w3.org/2000/svg">
<path d="M5.27262 22.826L8.46796 20.4942L8.21375 20.3612C7.99144 20.2462 7.79018 20.0943 7.61851 19.9122C7.57189 19.8601 7.53057 19.8034 7.49514 19.7431C7.47019 19.7147 7.44785 19.6841 7.42841 19.6517C6.97252 18.9914 6.73097 18.2067 6.73656 17.4043C6.74216 16.6019 6.99463 15.8207 7.45967 15.1668C7.92472 14.5129 8.57979 14.018 9.33589 13.7494C10.092 13.4808 10.9125 13.4514 11.6858 13.6653C12.0767 13.8273 12.476 13.9683 12.8818 14.0879C13.1347 14.1717 13.4039 14.1939 13.6671 14.1526C13.9303 14.1114 14.1799 14.008 14.3951 13.851C14.6102 13.694 14.7848 13.4878 14.9044 13.2498C15.0239 13.0117 15.0849 12.7486 15.0823 12.4822C15.0746 11.8082 15.0641 11.2468 15.0419 11.2163C15.0739 10.4159 15.3511 9.64461 15.836 9.00698C16.3209 8.36935 16.99 7.89615 17.7528 7.65145C18.5155 7.40675 19.3351 7.40239 20.1004 7.63895C20.8657 7.87551 21.5399 8.34157 22.0315 8.974C22.0558 9.00725 22.0821 9.04328 22.1084 9.07931C22.1536 9.13251 22.1949 9.18902 22.2317 9.24836C22.351 9.46916 22.4323 9.70846 22.4722 9.95625L22.5214 10.2389L25.7112 7.9112C25.5779 7.64854 25.4291 7.39407 25.2655 7.14916C25.2118 7.06389 25.1524 6.98241 25.0875 6.90529C24.9925 6.77504 24.8853 6.62816 24.7857 6.52666C23.8903 5.44658 22.7134 4.63535 21.3854 4.18278C20.0574 3.73021 18.63 3.65395 17.2614 3.96245C15.8927 4.27094 14.6361 4.95216 13.6306 5.93069C12.6252 6.90921 11.9101 8.14688 11.5646 9.50668C11.5348 9.63461 11.5009 9.757 11.4787 9.88366C11.3513 9.86621 11.2272 9.85909 11.0963 9.84846C9.6961 9.76179 8.29927 10.0642 7.06035 10.7223C5.82143 11.3803 4.78875 12.3683 4.07658 13.5769C3.36441 14.7856 3.00053 16.1677 3.02521 17.5703C3.0499 18.9729 3.46218 20.3413 4.21644 21.5241C4.30946 21.6516 4.40856 21.7874 4.50765 21.9232C4.56132 22.0085 4.62078 22.09 4.68562 22.1671C4.86799 22.3982 5.06401 22.6182 5.27262 22.826Z" fill="#1778F2"/>
<path d="M23.1485 14.05L23.7019 17.3284L25.0282 25.1988C25.0942 25.5898 25.0501 25.9914 24.9006 26.3587C24.7511 26.726 24.5023 27.0443 24.182 27.278C23.8617 27.5118 23.4826 27.6517 23.0872 27.682C22.6919 27.7123 22.2959 27.6319 21.9437 27.4497L14.8475 23.7898L11.8941 22.2628L8.50202 24.7381C8.59363 24.7647 8.68448 24.7961 8.77683 24.8179L20.2532 30.7262C21.2153 31.2222 22.2964 31.4407 23.3757 31.3573C24.4549 31.2738 25.4896 30.8917 26.364 30.2536C27.2384 29.6155 27.9179 28.7467 28.3266 27.7444C28.7353 26.7421 28.857 25.6458 28.678 24.5782L26.5333 11.8731C26.5394 11.7709 26.538 11.67 26.5413 11.5699L23.1485 14.05Z" fill="#26C196"/>
</svg>
