<svg width="74" height="79" viewBox="0 0 74 79" fill="none" xmlns="http://www.w3.org/2000/svg">
<path d="M66.4664 22.3214L41.2188 6.69599C34.7121 2.45762 26.0109 6.63852 25.6059 13.6999L23.812 36.8941C22.8204 42.6455 27.399 48.553 33.7507 48.9808L38.6587 41.3936C37.5743 41.6173 35.0157 42.8869 33.8221 42.584C30.2362 41.9716 30.3224 38.8048 30.7223 36.1431C31.2461 29.3703 31.8868 21.0861 32.4144 14.2643C32.461 13.6983 32.6601 13.1632 32.9931 12.7088C33.3262 12.2545 33.7823 11.8958 34.3189 11.6662C34.8555 11.4367 35.455 11.3438 36.0614 11.3963C36.6678 11.4487 37.2613 11.6448 37.7864 11.9662L51.0905 20.2184L62.9966 27.6196C63.5669 27.9769 64.0317 28.4703 64.3389 29.0444C64.646 29.6185 64.7833 30.2506 64.7354 30.8699C64.6876 31.4892 64.4563 32.0711 64.0677 32.5504C63.6791 33.0297 63.1485 33.3875 62.5353 33.5836L51.5967 37.1624C51.7142 39.7272 51.2426 42.2456 50.2144 44.5448L65.1693 39.6638C72.9719 37.4079 73.7599 26.5349 66.4664 22.3214Z" fill="#26C196"/>
<path d="M49.4873 39.4466C49.0353 32.1548 41.311 26.2707 33.8844 26.4745L33.3781 33.0235C38.0005 32.0735 43.5735 36.3076 42.617 41.0249C40.4771 44.5965 37.4759 49.0268 35.0755 52.7697C31.3367 58.5141 27.6142 64.1615 27.6142 64.1615C27.2368 64.7177 26.6965 65.1537 26.0526 65.4218C25.4086 65.6898 24.6858 65.7795 23.9636 65.6811C23.2413 65.5826 22.5473 65.2998 21.9578 64.8636C21.3683 64.4274 20.906 63.8547 20.6216 63.2083C20.6621 62.6844 9.01269 36.8498 9.48324 35.9047C9.86079 30.1074 18.1237 28.4542 21.9382 32.8126L22.5078 25.4449C13.618 21.04 1.33501 26.9351 2.69991 37.2715C4.04965 41.7489 12.385 60.5221 14.2977 65.2583C17.2825 73.0359 29.3273 74.6777 33.4575 67.8699L45.1284 50.1278C47.0648 47.0166 49.9078 43.4912 49.4873 39.4466Z" fill="#FF917F"/>
</svg>
