<svg width="72" height="101" viewBox="0 0 72 101" fill="none" xmlns="http://www.w3.org/2000/svg">
<path d="M45.8423 22.1326L21.7648 27.0886C15.4498 28.2311 12.1178 36.0355 15.5273 40.775L26.4333 56.6165C28.7919 60.8676 34.754 61.9279 38.9927 58.4485L38.1578 50.7139C37.5882 51.497 36.6293 53.8176 35.7172 54.3295C33.1316 56.0575 31.5422 53.9884 30.4134 52.0558C27.2288 47.4301 23.3335 41.772 20.1258 37.1128C19.8615 36.7246 19.7096 36.2659 19.6843 35.7796C19.6591 35.2933 19.7613 34.7953 19.9815 34.332C20.2017 33.8688 20.5326 33.4554 20.9433 33.1307C21.354 32.8059 21.8311 32.5803 22.33 32.4749L35.0271 29.8751L46.3984 27.5589C46.9445 27.4497 47.4946 27.4895 47.9869 27.674C48.4791 27.8585 48.8941 28.1802 49.1853 28.6031C49.4765 29.0261 49.6323 29.5335 49.6354 30.0686C49.6384 30.6036 49.4886 31.145 49.2026 31.6322L44.1431 40.3747C45.5488 41.9398 46.558 43.8233 47.1013 45.896L54.0246 33.9513C57.7878 27.9044 52.6418 20.5095 45.8423 22.1326Z" fill="#F9F871"/>
<path d="M44.5743 42.0866C40.5043 37.708 32.5657 38.5227 27.9747 43.0401L31.0531 47.5117C33.4834 44.1756 39.2052 43.5806 41.0484 47.1512C41.5486 50.691 41.9497 55.2867 42.374 59.0895C42.9905 64.9582 43.5671 70.7555 43.5671 70.7555C43.617 71.3328 43.5016 71.9298 43.2335 72.481C42.9653 73.0322 42.5548 73.5164 42.0469 73.8804C41.539 74.2444 40.9534 74.4742 40.3542 74.5446C39.755 74.615 39.1654 74.5233 38.6501 74.2794C38.4038 73.9217 17.6294 64.3446 17.4365 63.4645C14.6668 59.5479 19.0345 53.6129 23.7087 54.1361L20.2455 49.1055C12.3374 51.5512 7.62856 62.5638 13.8559 68.3429C17.0331 70.3981 32.0471 77.4342 35.7146 79.3216C41.6385 82.5134 50.108 76.4434 49.187 69.6659L47.3607 51.4671C46.9708 48.3408 46.9392 44.4151 44.5743 42.0866Z" fill="#FF917F"/>
</svg>
