<svg width="48" height="32" viewBox="0 0 48 32" fill="none" xmlns="http://www.w3.org/2000/svg">
<path fill-rule="evenodd" clip-rule="evenodd" d="M39.9205 0V17.2746H20.6602L20.072 18.0186L19.5027 17.2746H14.1965V22.2985H19.4694L20.0467 21.5386L20.6152 22.2985H23.7998V21.1353H24.5157C24.5649 21.1353 24.612 21.1342 24.6571 21.132L24.6904 21.1302L24.7231 21.128L24.7391 21.1268L24.7705 21.1241L24.786 21.1226L24.8163 21.1195L24.8458 21.1161L24.8746 21.1124L24.9026 21.1084L24.9298 21.1043L24.9563 21.0999L24.9821 21.0953L25.0193 21.0881L25.0431 21.0831L25.0775 21.0753L25.0995 21.07L25.1208 21.0646L25.1413 21.0591L25.1707 21.0508L25.1984 21.0424L25.216 21.0368L25.2328 21.0312L25.249 21.0257L25.2718 21.0174L25.293 21.0093L25.3062 21.0041L25.3187 20.9989L25.3305 20.9939L25.3469 20.9867L25.3617 20.9799L25.3749 20.9736L25.39 20.9659L25.405 20.9579L25.4242 20.9466V22.2985H27.5276V21.5066L28.1694 22.2985H38.8343C38.9539 22.2975 39.0701 22.2823 39.1794 22.2588L39.2104 22.2518L39.2411 22.2445L39.2623 22.2391L39.2862 22.2327L39.3157 22.2244L39.3448 22.2158L39.3734 22.2069L39.4015 22.1978L39.4291 22.1884L39.4561 22.1789L39.4825 22.1691L39.5084 22.1593L39.5337 22.1493L39.5583 22.1393L39.5824 22.1292L39.6172 22.1141L39.6504 22.099L39.6717 22.0891L39.7022 22.0744L39.731 22.0601L39.7581 22.0462L39.7833 22.0328L39.8066 22.0202L39.8345 22.0044L39.8472 21.9972L39.8746 21.9809L39.8959 21.9679L39.9205 21.9521V32H8V15.7154H9.47836L9.79397 14.9234H10.6415L10.9594 15.7154H22.9851V14.9234L23.627 15.7154H26.861V15.1578L26.8736 15.17L26.8909 15.1859L26.8998 15.1939L26.921 15.2124L26.9333 15.2228L26.9537 15.2397L26.9687 15.2518L26.9848 15.2645L27.002 15.2777L27.0202 15.2914L27.0394 15.3055L27.0597 15.3201L27.081 15.335L27.0921 15.3426L27.1149 15.3579L27.1387 15.3735L27.1636 15.3893L27.1894 15.4052L27.2161 15.4212L27.2419 15.4361L27.2551 15.4436L27.282 15.4585L27.3098 15.4734L27.3384 15.4881C27.5703 15.6058 27.8783 15.7107 28.2435 15.7152L28.2682 15.7154H30.4131L30.726 14.9234H31.5763L31.8943 15.7154H35.0572V14.8244L35.625 15.7154H37.7974V10.6914H35.625V11.5795L35.0325 10.6914H32.8797V12.2506L32.2124 10.7045L28.4657 10.6914C28.0569 10.6914 27.7137 10.787 27.451 10.8998L27.4199 10.9134L27.3895 10.9271L27.3599 10.941L27.3312 10.9549L27.3032 10.9689L27.2895 10.9759L27.2627 10.9899L27.2367 11.0039L27.2115 11.0178L27.1872 11.0316L27.1637 11.0452L27.1522 11.052L27.1252 11.0684L27.1121 11.0765L27.0748 11.1003L27.0516 11.1156L27.0296 11.1304L26.999 11.1517L26.9803 11.1652L26.9629 11.178L26.9468 11.1901L26.9321 11.2014L26.9067 11.2216L26.8869 11.238L26.8699 11.2527L26.861 11.2606V10.6914H15.3136L14.9217 11.8237L14.5174 10.6914H11.945V12.258L11.2659 10.6914H9.19658L8 13.488V0H39.9205ZM24.292 17.8939C25.1422 17.8939 25.639 18.4433 25.639 19.1592C25.639 20.0147 25.0182 20.4588 24.1951 20.4676L24.1701 20.4678H23.1826V21.6557H22.2198V17.8939H24.292ZM39.5618 18.7397L39.9568 17.8933H38.1299C37.0341 17.8933 36.658 18.4749 36.658 19.0781C36.658 19.7544 37.0687 20.2048 37.8061 20.2048H38.6545C38.9327 20.2048 39.0526 20.3647 39.0526 20.5228C39.0526 20.6879 38.9323 20.8384 38.6545 20.8384H36.7771V21.6551H38.7764C39.6025 21.6551 40 21.116 40 20.4578C40 19.8457 39.6433 19.3782 38.8212 19.3782H37.9324C37.7017 19.3782 37.5868 19.2062 37.5868 19.0503C37.5868 18.8985 37.6798 18.7397 37.9818 18.7397H39.5618ZM17.8995 17.8933V18.7347H15.7863V19.3782H17.8502V20.1701H15.7863V20.8384H17.8995V21.6551H14.8383V17.8933H17.8995ZM29.4454 19.1137C29.4454 18.3221 28.8256 17.8933 28.1339 17.8933H26.0463V21.6551H26.9844V20.3186H27.3794L28.5042 21.6551H29.6506L28.4163 20.2691L28.4315 20.2677C28.9333 20.2175 29.4454 19.7836 29.4454 19.1137ZM19.1647 17.8933L20.0735 19.0704L20.9854 17.8933H22.121L20.6151 19.7742L22.1084 21.6551H20.9266L20.0442 20.4965L19.1833 21.6551H18.0183L19.5088 19.7974L17.9828 17.8933H19.1647ZM32.8995 18.7347V17.8933H29.8383V21.6551H32.8995V20.8384H30.7863V20.1701H32.8402V19.3782H30.7863V18.7347H32.8995ZM36.5137 17.8933L36.1187 18.7397H34.5387C34.254 18.7397 34.155 18.8809 34.1447 19.0242L34.144 19.0372L34.1437 19.0503C34.1437 19.2062 34.2586 19.3782 34.4893 19.3782H35.3781C36.2002 19.3782 36.5569 19.8457 36.5569 20.4578C36.5569 21.116 36.1594 21.6551 35.3333 21.6551H33.334V20.8384H35.2114C35.4892 20.8384 35.6095 20.6879 35.6095 20.5228C35.6095 20.3647 35.4896 20.2048 35.2114 20.2048H34.363C33.6256 20.2048 33.2149 19.7544 33.2149 19.0781C33.2149 18.4749 33.591 17.8933 34.6868 17.8933H36.5137ZM23.1826 18.7446H24.2226L24.2335 18.7447C24.4977 18.7491 24.6855 18.9141 24.6855 19.1777C24.6855 19.4288 24.4935 19.6108 24.2195 19.6108H23.1826V18.7446ZM28.0568 18.7347H26.9844V19.5267H28.0707C28.2587 19.5267 28.5012 19.3806 28.5012 19.1307C28.5012 18.9392 28.3193 18.7405 28.0678 18.7348L28.0568 18.7347ZM12.456 15.0725L10.8437 11.3108H9.6201L8.00618 15.0725H9.05692L9.35471 14.3193H11.0859L11.3821 15.0725H12.456ZM31.7799 11.3108L33.3923 15.0725H32.3184L32.0222 14.3193H30.291L29.9932 15.0725H28.9424L30.5564 11.3108H31.7799ZM24.903 12.5312C24.903 11.7396 24.2832 11.3108 23.5915 11.3108H21.5039V15.0725H22.442V13.7361H22.837L23.9618 15.0725H25.1082L23.8739 13.6866L23.8891 13.6852C24.3909 13.635 24.903 13.2011 24.903 12.5312ZM29.6013 11.3101V12.2011H28.5265C28.0137 12.2011 27.651 12.6023 27.651 13.2158C27.651 13.9443 28.0657 14.2503 28.6632 14.2503H28.91L28.515 15.0719H28.3083C27.3079 15.0719 26.7005 14.2818 26.7005 13.2065C26.7005 12.1046 27.3011 11.3101 28.5644 11.3101H29.6013ZM26.2439 15.0719V11.3101H25.286V15.0719H26.2439ZM20.9607 11.3101V12.1516H18.8475V12.795H20.9114V13.587H18.8475V14.2552H20.9607V15.0719H17.8995V11.3101H20.9607ZM17.2577 15.0719V11.3101H15.7764L14.9288 13.741L14.0603 11.3157L12.5671 11.3101V15.0719H13.5052V12.3001L14.5024 15.0719H15.3251L16.3196 12.3001V15.0719H17.2577ZM34.6946 11.3101L36.2175 13.6736V11.3101H37.1556V15.0719H36.0015L34.44 12.6465V15.0719H33.5019V11.3101H34.6946ZM30.6243 13.5026L31.1535 12.1862L31.6812 13.5026H30.6243ZM10.2172 12.1862L9.68795 13.5026H10.7449L10.2172 12.1862ZM22.442 12.1522H23.5144L23.5253 12.1523C23.7769 12.158 23.9587 12.3567 23.9587 12.5482C23.9587 12.7981 23.7163 12.9442 23.5283 12.9442H22.442V12.1522Z" fill="#016FD0"/>
</svg>
