<svg width="48" height="32" viewBox="0 0 48 32" fill="none" xmlns="http://www.w3.org/2000/svg">
<path fill-rule="evenodd" clip-rule="evenodd" d="M3.79537 0.673828H44.066L44.4799 0.680103C44.7797 0.688228 45.0826 0.705953 45.38 0.759274C45.681 0.81352 45.9616 0.902002 46.2352 1.04132C46.5045 1.17812 46.7501 1.35705 46.9639 1.57056C47.1771 1.78407 47.356 2.02994 47.4931 2.29924C47.6328 2.57286 47.7213 2.85343 47.7749 3.15508C47.8285 3.45184 47.8459 3.75479 47.854 4.05491L47.8614 4.71366L47.8603 27.5185L47.854 27.9317C47.8459 28.2316 47.8285 28.5345 47.7749 28.8312C47.7213 29.1329 47.6328 29.4134 47.4931 29.6871C47.356 29.9563 47.1771 30.2025 46.9639 30.4157C46.7501 30.6296 46.5045 30.8085 46.2352 30.9449C45.9616 31.0846 45.681 31.1731 45.38 31.2274C45.0826 31.2803 44.7797 31.2984 44.4799 31.3065L43.8207 31.3132L3.79537 31.3121C3.65729 31.3115 3.51954 31.3096 3.38178 31.3065C3.08135 31.2984 2.77834 31.2803 2.48167 31.2274C2.18025 31.1731 1.89977 31.0846 1.62614 30.9449C1.35714 30.8085 1.11086 30.6296 0.897439 30.4157C0.683923 30.2025 0.504993 29.9563 0.368222 29.6871C0.228877 29.4134 0.140337 29.1329 0.0864674 28.8312C0.0328606 28.5345 0.0150168 28.2316 0.00692037 27.9317L0.000732422 27.5185V4.46814L0.00692037 4.05491C0.0150168 3.75479 0.0328606 3.45184 0.0864674 3.15508C0.140337 2.85343 0.228877 2.57286 0.368222 2.29924C0.504993 2.02994 0.683923 1.78407 0.897439 1.57056C1.11086 1.35705 1.35714 1.17812 1.62614 1.04132C1.89977 0.902002 2.18025 0.81352 2.48167 0.759274C2.77834 0.705953 3.08135 0.688228 3.38178 0.680103L3.79537 0.673828ZM44.0587 1.69511L3.8013 1.69514L3.40967 1.70101C3.18008 1.70723 2.912 1.7196 2.66222 1.76448C2.44544 1.80349 2.26336 1.86291 2.08955 1.95142C1.91556 2.0399 1.75766 2.15461 1.61973 2.2926C1.48125 2.43105 1.36657 2.58887 1.27875 2.76175C1.18969 2.93666 1.13045 3.11843 1.09181 3.33469C1.04639 3.5862 1.03401 3.85372 1.02783 4.08248L1.02195 4.47486L1.02198 27.5125C1.02282 27.6426 1.0243 27.7734 1.02783 27.9043C1.03401 28.1328 1.04639 28.4002 1.09144 28.6496C1.13042 28.8679 1.18969 29.0496 1.27829 29.2237C1.3668 29.3979 1.48128 29.5555 1.61903 29.693C1.75786 29.8321 1.91525 29.9465 2.08813 30.0341C2.26382 30.1238 2.44556 30.1832 2.66234 30.2222C2.91503 30.2673 3.19433 30.2798 3.40935 30.2856L4.04104 30.2919L44.2584 30.2891L44.4567 30.2855C44.667 30.2798 44.9461 30.2673 45.2009 30.2219C45.4158 30.1832 45.5975 30.1238 45.7709 30.0353C45.9455 29.9468 46.103 29.8323 46.2417 29.6935C46.3796 29.5557 46.4945 29.3976 46.583 29.2236C46.6719 29.0494 46.731 28.8682 46.7693 28.6525C46.8145 28.4026 46.8268 28.1341 46.8331 27.9041L46.8401 27.2693L46.839 4.47608L46.8331 4.08279C46.8268 3.85237 46.8145 3.58374 46.7699 3.33674C46.731 3.11808 46.6719 2.9369 46.5835 2.76355C46.4947 2.58916 46.3797 2.43087 46.2412 2.29216C46.1032 2.15438 45.9452 2.03953 45.7727 1.95188C45.598 1.86294 45.4159 1.80349 45.1988 1.76439C44.9491 1.71963 44.6812 1.70723 44.4522 1.70104L44.0587 1.69511ZM37.5147 19.3763L35.4951 12.8779H33.7189L36.6036 20.8718L36.4878 21.2621L36.4592 21.3653C36.2088 22.1852 35.7988 22.504 35.0397 22.504L34.7683 22.5002C34.6677 22.4964 34.5691 22.4888 34.5085 22.4736V23.8022C34.5327 23.8067 34.5685 23.811 34.6114 23.8149L34.9172 23.8333L35.1765 23.8401C36.8314 23.8401 37.621 23.2176 38.3039 21.2817L41.2952 12.8779H39.5644L37.5448 19.3763H37.5147ZM29.8517 12.7337C31.7875 12.7337 33.0248 13.7586 33.0248 15.3604V20.8642H31.4533V19.5509H31.4156C30.9526 20.4391 29.9428 21.0008 28.8952 21.0008C27.3313 21.0008 26.2381 20.0291 26.2381 18.5944C26.2381 17.1975 27.3085 16.3397 29.2065 16.2334L31.3927 16.1044V15.4895C31.3927 14.6013 30.7929 14.0699 29.7911 14.0699C28.8419 14.0699 28.2497 14.5253 28.1057 15.239H26.557C26.6481 13.7965 27.8778 12.7337 29.8517 12.7337ZM13.8601 11.9633L13.6728 11.9449C13.1839 11.9158 12.7315 12.0546 12.343 12.2006L11.9092 12.3691C11.7094 12.4448 11.5364 12.5 11.3963 12.5C11.1946 12.5 10.9466 12.402 10.6677 12.2918L10.6677 12.2918C10.3006 12.1467 9.87991 11.9804 9.44038 11.9885C8.4336 12.0033 7.49943 12.5725 6.98853 13.4779C5.9377 15.289 6.71122 17.9756 7.73309 19.4507L7.96968 19.7894C8.41785 20.408 8.94863 20.9796 9.61543 20.9551C9.86362 20.9454 10.0615 20.8886 10.2486 20.8172L10.62 20.6644C10.8735 20.5625 11.1546 20.473 11.5569 20.473C12.0198 20.473 12.3147 20.5993 12.5979 20.7207C12.868 20.8364 13.1276 20.9477 13.5123 20.9405C14.2039 20.9282 14.6762 20.414 15.1057 19.8135L15.3369 19.4799C15.6474 19.0261 15.8579 18.5809 15.9874 18.2627L16.0791 18.0239L16.1539 17.8006L16.0533 17.7525L15.9012 17.6705C15.4552 17.4117 14.5742 16.738 14.5633 15.3909C14.5529 14.3293 15.168 13.6607 15.5513 13.3436L15.7196 13.2141L15.8476 13.1273C15.3338 12.3674 14.6081 12.102 14.108 12.0029L13.8601 11.9633ZM22.1882 9.90964C24.3137 9.90964 25.7939 11.3748 25.7939 13.508C25.7939 15.6488 24.2833 17.1216 22.1349 17.1216H19.7814V20.8642H18.0811V9.90964H22.1882ZM29.4265 17.3645L31.3927 17.2432V17.8732C31.3927 18.9132 30.4969 19.7027 29.3506 19.7027C28.47 19.7027 27.893 19.2472 27.893 18.5489C27.893 17.8656 28.4471 17.4329 29.4265 17.3645ZM21.74 11.3445H19.7814V15.6944H21.7324C23.2128 15.6944 24.0554 14.8974 24.0554 13.5156C24.0554 12.1341 23.2128 11.3445 21.74 11.3445ZM13.0659 10.9786C13.4757 10.466 13.7538 9.77774 13.6805 9.07444C13.0806 9.10427 12.3485 9.47021 11.9247 9.98319C11.5441 10.4225 11.2073 11.1395 11.2951 11.8133C11.9685 11.8718 12.6413 11.4767 13.0659 10.9786Z" fill="black"/>
</svg>
