<svg width="48" height="32" viewBox="0 0 48 32" fill="none" xmlns="http://www.w3.org/2000/svg">
<path fill-rule="evenodd" clip-rule="evenodd" d="M42.4598 30.0652V27.041H41.7565V28.7993C41.5103 28.4828 41.1235 28.3069 40.7015 28.3069C39.7169 28.3069 38.9433 29.0806 38.9433 30.0652C38.9433 31.0498 39.7169 31.8234 40.7015 31.8234C41.1235 31.8234 41.5103 31.6476 41.7565 31.3311V31.7531H42.4598V30.0652ZM20.6575 28.3776H21.8531V29.0106H20.6575V30.5578C20.6575 30.9095 20.7981 31.1204 21.1498 31.1204C21.3608 31.1204 21.5718 31.0501 21.7828 30.9446L21.9937 31.5776C21.7124 31.7182 21.3959 31.8237 21.0795 31.8237C20.2355 31.8237 19.919 31.3666 19.919 30.593V29.0457H19.2509V28.3776H19.919V27.3578H20.6575V28.3776ZM10.9168 29.6434V31.7533H10.108V29.8896C10.108 29.327 9.8619 29.0105 9.36959 29.0105H9.22893C8.80695 29.0456 8.49047 29.4676 8.5608 29.8896V31.7533H7.82234V29.8896C7.82234 29.327 7.57618 29.0105 7.08387 29.0105H6.94321C6.52124 29.0456 6.20475 29.4676 6.27508 29.8896V31.7533H5.53662V28.3775H6.27508V28.7995C6.48607 28.483 6.87288 28.272 7.2597 28.3072C7.71684 28.272 8.13882 28.5182 8.38497 28.905C8.66629 28.5182 9.12343 28.272 9.58058 28.3072H9.7564C10.4597 28.3423 10.952 28.9401 10.9168 29.6434ZM28.1125 28.3073C27.7608 28.3073 27.4092 28.4831 27.2333 28.7996V28.3776H26.4949V31.7534H27.2333V29.8545C27.2333 29.2919 27.4795 28.9754 27.9366 28.9754C28.0773 28.9754 28.2531 29.0106 28.3938 29.0457L28.6048 28.3424C28.429 28.3073 28.2531 28.2721 28.1125 28.3073ZM17.2817 28.3069C17.774 28.3069 18.2312 28.4124 18.6531 28.6585L18.3367 29.2563C18.0202 29.0805 17.6685 28.975 17.2817 28.975C16.8949 28.975 16.6487 29.1508 16.6487 29.3618C16.6487 29.5728 16.8949 29.6431 17.2114 29.6783L17.563 29.7135C18.2663 29.819 18.7235 30.1003 18.7235 30.7332C18.7235 31.3662 18.1608 31.8234 17.1762 31.8234C16.6839 31.8585 16.1564 31.6827 15.7345 31.4014L16.0861 30.8387C16.4026 31.0849 16.8246 31.1904 17.2114 31.1904C17.7037 31.1904 17.985 31.0146 17.985 30.7684C17.985 30.5926 17.774 30.4871 17.3872 30.4168L17.0356 30.3816C16.2971 30.2761 15.8751 29.9596 15.8751 29.397C15.8751 28.7289 16.4377 28.3069 17.2817 28.3069ZM38.24 28.3073C37.8883 28.3073 37.5367 28.4831 37.3608 28.7996V28.3776H36.6224V31.7534H37.3608V29.8545C37.3608 29.2919 37.607 28.9754 38.0641 28.9754C38.2048 28.9754 38.3806 29.0106 38.5213 29.0457L38.7323 28.3424C38.5916 28.3073 38.4158 28.2721 38.24 28.3073ZM30.4333 31.8237C29.5191 31.7885 28.7806 31.0149 28.8158 30.0655V29.9248C28.8861 29.0105 29.6597 28.2721 30.6092 28.3424C31.0311 28.3072 31.4531 28.4479 31.8048 28.7292L31.4531 29.327C31.207 29.116 30.8905 29.0105 30.574 29.0105C30.0465 29.0457 29.6246 29.4677 29.5894 29.9951C29.5542 30.5929 29.9762 31.1204 30.574 31.1556C30.8905 31.1204 31.207 31.0149 31.4531 30.8391L31.8048 31.4369C31.4883 31.7182 31.0311 31.8589 30.6092 31.8237H30.4333ZM35.6729 30.0651V28.3772H34.9344V28.7992C34.6883 28.4827 34.3015 28.3069 33.8795 28.3069C32.8949 28.3069 32.1212 29.0805 32.1212 30.0651C32.1212 31.0497 32.8949 31.8234 33.8795 31.8234C34.3015 31.8234 34.6883 31.6475 34.9344 31.331V31.753H35.6729V30.0651ZM34.0553 29.1158C33.4926 29.0806 33.0003 29.5026 32.9651 30.0653V30.1707C32.9651 30.7334 33.4223 31.1554 33.9849 31.1554C34.5476 31.1554 34.9695 30.7334 35.0047 30.2059C35.0399 29.6433 34.6179 29.151 34.0553 29.1158ZM24.1389 28.3069C23.1543 28.3069 22.3806 29.1157 22.4158 30.1003C22.451 31.0849 23.2246 31.8585 24.2092 31.8234C24.7015 31.8585 25.229 31.6827 25.6158 31.3662L25.2642 30.8387C24.9828 31.0497 24.6312 31.1904 24.2796 31.1904C23.7872 31.2256 23.3301 30.8739 23.2598 30.3816H25.7565V30.1003C25.7565 29.0102 25.0883 28.3069 24.1389 28.3069ZM24.9828 29.7486C24.9828 29.2914 24.596 28.9398 24.1389 28.9398C23.6466 28.9398 23.2598 29.2914 23.2246 29.7486H24.9828ZM40.8421 29.1158C40.2795 29.0806 39.7872 29.5026 39.752 30.0653V30.1707C39.752 30.7334 40.2092 31.1554 40.7718 31.1554C41.3344 31.1554 41.7564 30.7334 41.7916 30.2059C41.8268 29.6433 41.4048 29.151 40.8421 29.1158ZM15.0663 30.0651V28.3772H14.3278V28.7992C14.0816 28.4827 13.6948 28.3069 13.2728 28.3069C12.2882 28.3069 11.5146 29.0805 11.5146 30.0651C11.5146 31.0497 12.2882 31.8234 13.2728 31.8234C13.6948 31.8234 14.0816 31.6475 14.3278 31.331V31.753H15.0663V30.0651ZM13.4136 29.1158C12.851 29.0806 12.3587 29.5026 12.3235 30.0653V30.1707C12.3235 30.7334 12.7807 31.1554 13.3433 31.1554C13.9059 31.1554 14.3279 30.7334 14.3631 30.2059C14.3982 29.6433 13.9763 29.151 13.4136 29.1158Z" fill="#231F20"/>
<rect x="18.4421" y="2.77734" width="11.0769" height="19.9033" fill="#FF5F00"/>
<path d="M19.1454 12.7306C19.1454 8.8625 20.9388 5.17019 23.9982 2.77898C18.5125 -1.5463 10.53 -0.596846 6.23994 4.92403C1.94983 10.4449 2.86411 18.3922 8.38499 22.6823C12.9916 26.3043 19.4268 26.3043 24.0333 22.6823C20.9037 20.2559 19.1103 16.5988 19.1454 12.7306Z" fill="#EB001B"/>
<path d="M44.4288 12.7287C44.4288 19.7265 38.7673 25.388 31.7695 25.388C28.9211 25.388 26.1783 24.4386 23.9629 22.6803C29.4486 18.3551 30.3981 10.3726 26.1079 4.88692C25.475 4.07813 24.7717 3.37484 23.9629 2.74187C29.4486 -1.58341 37.431 -0.633955 41.7563 4.88692C43.4794 7.10231 44.4288 9.88033 44.4288 12.7287Z" fill="#F79E1B"/>
</svg>
