<svg width="73" height="20" viewBox="0 0 73 20" fill="none" xmlns="http://www.w3.org/2000/svg">
<path d="M13.5224 2.10514C12.6695 1.13243 11.1277 0.715406 9.1555 0.715406H3.43137C3.23613 0.715302 3.04726 0.784927 2.89875 0.911749C2.75025 1.03857 2.65185 1.21426 2.62127 1.40721L0.238893 16.5336C0.227846 16.6038 0.232133 16.6755 0.25146 16.7439C0.270787 16.8123 0.304694 16.8756 0.350844 16.9296C0.396994 16.9836 0.454291 17.0269 0.518787 17.0566C0.583282 17.0863 0.653444 17.1016 0.724438 17.1016H4.25827L5.1458 11.4687L5.11829 11.6451C5.14828 11.4526 5.24602 11.277 5.39389 11.1502C5.54177 11.0234 5.73005 10.9535 5.92482 10.9533H7.6041C10.9031 10.9533 13.4862 9.61253 14.2407 5.73393C14.2632 5.61922 14.2825 5.50758 14.2993 5.39848C14.5235 3.96491 14.2978 2.98914 13.5229 2.10565" fill="#003087"/>
<path d="M56.7841 9.30397C56.5681 10.7233 55.4849 10.7233 54.4374 10.7233H53.8413L54.2596 8.0733C54.2851 7.91322 54.4226 7.79546 54.5846 7.79546H54.8582C55.5715 7.79546 56.2451 7.79546 56.5925 8.20177C56.7999 8.44495 56.8626 8.80589 56.7841 9.30397ZM56.3281 5.60075H52.3765C52.2456 5.60081 52.119 5.64755 52.0195 5.73258C51.92 5.8176 51.854 5.93534 51.8334 6.06467L50.2366 16.2032C50.2293 16.2502 50.2322 16.2982 50.2451 16.344C50.2581 16.3898 50.2808 16.4322 50.3116 16.4684C50.3425 16.5045 50.3809 16.5336 50.424 16.5536C50.4672 16.5735 50.5141 16.5839 50.5617 16.584H52.5895C52.7785 16.584 52.9395 16.4463 52.969 16.2597L53.4225 13.3844C53.4643 13.1178 53.6945 12.9205 53.9646 12.9205H55.2149C57.8184 12.9205 59.3204 11.6608 59.7127 9.16224C59.8895 8.07024 59.7198 7.21173 59.2088 6.61067C58.6468 5.94996 57.6508 5.60024 56.3286 5.60024" fill="#009CDE"/>
<path d="M28.5991 9.30335C28.3831 10.7227 27.2999 10.7227 26.2519 10.7227H25.6558L26.0741 8.07268C26.0996 7.9126 26.2371 7.79484 26.3991 7.79484H26.6727C27.386 7.79484 28.0596 7.79484 28.4071 8.20116C28.6149 8.44433 28.6776 8.80527 28.5991 9.30335ZM28.1431 5.60013H24.1915C23.9215 5.60013 23.6912 5.79691 23.6489 6.06405L22.0517 16.2025C22.0442 16.2496 22.0471 16.2976 22.06 16.3434C22.0729 16.3893 22.0956 16.4317 22.1265 16.4679C22.1574 16.5041 22.1957 16.5332 22.2389 16.5531C22.2821 16.573 22.3291 16.5834 22.3767 16.5834H24.2639C24.5339 16.5834 24.7637 16.3866 24.806 16.1195L25.2375 13.3843C25.2793 13.1172 25.5096 12.9204 25.7796 12.9204H27.0299C29.6334 12.9204 31.1354 11.6602 31.5277 9.16163C31.7045 8.06962 31.5348 7.21111 31.0238 6.61005C30.4618 5.94934 29.4658 5.59962 28.1436 5.59962L28.1431 5.60013ZM37.3175 12.9434C37.1341 14.0252 36.2767 14.7516 35.1818 14.7516C34.633 14.7516 34.1933 14.5747 33.9111 14.2403C33.6309 13.9089 33.5259 13.4363 33.6146 12.9107C33.7847 11.8381 34.657 11.0887 35.7351 11.0887C36.2726 11.0887 36.7082 11.2671 36.9966 11.6046C37.2865 11.9447 37.4006 12.4198 37.3175 12.9434ZM39.9547 9.25747H38.0624C37.9838 9.25738 37.9077 9.28543 37.8479 9.33658C37.7881 9.38772 37.7485 9.45857 37.7364 9.53633L37.6538 10.0655L37.5213 9.87383C37.1117 9.27888 36.1982 9.07955 35.2862 9.07955C33.1958 9.07955 31.41 10.665 31.0625 12.8878C30.8817 13.9976 31.1384 15.0575 31.7671 15.7973C32.3444 16.4768 33.1682 16.7598 34.15 16.7598C35.8354 16.7598 36.7698 15.6769 36.7698 15.6769L36.6853 16.2031C36.6778 16.2501 36.6807 16.2982 36.6936 16.3441C36.7066 16.3899 36.7293 16.4324 36.7602 16.4686C36.7912 16.5048 36.8296 16.5339 36.8729 16.5538C36.9162 16.5737 36.9632 16.584 37.0108 16.5839H38.7146C38.9846 16.5839 39.2149 16.3876 39.2572 16.12L40.2802 9.63881C40.2876 9.59172 40.2847 9.54359 40.2717 9.49775C40.2587 9.4519 40.2359 9.40941 40.2049 9.37322C40.1739 9.33703 40.1354 9.30798 40.0922 9.28809C40.0489 9.2682 40.0018 9.25792 39.9542 9.25798" fill="#003087"/>
<path d="M65.5028 12.9434C65.3194 14.0252 64.4619 14.7516 63.367 14.7516C62.8183 14.7516 62.3786 14.5747 62.0963 14.2403C61.8161 13.9089 61.7112 13.4363 61.7998 12.9107C61.97 11.8381 62.8417 11.0887 63.9203 11.0887C64.4578 11.0887 64.8934 11.2671 65.1818 11.6046C65.4717 11.9447 65.5858 12.4198 65.5028 12.9434ZM68.1399 9.25748H66.2477C66.169 9.25738 66.0929 9.28544 66.0331 9.33658C65.9733 9.38772 65.9338 9.45858 65.9216 9.53634L65.8391 10.0655L65.7066 9.87383C65.297 9.27889 64.3834 9.07956 63.4714 9.07956C61.3815 9.07956 59.5957 10.665 59.2478 12.8878C59.0669 13.9976 59.3242 15.0575 59.9529 15.7973C60.5302 16.4768 61.354 16.7598 62.3358 16.7598C64.0217 16.7598 64.9561 15.6769 64.9561 15.6769L64.8715 16.2031C64.8639 16.2501 64.8666 16.2982 64.8794 16.344C64.8923 16.3899 64.9149 16.4324 64.9458 16.4686C64.9766 16.5048 65.015 16.5339 65.0582 16.5538C65.1015 16.5737 65.1485 16.584 65.1961 16.5839H66.8993C67.1693 16.5839 67.3996 16.3876 67.4424 16.12L68.4655 9.63881C68.4728 9.59173 68.4699 9.5436 68.4569 9.49775C68.4439 9.4519 68.4211 9.40942 68.3901 9.37323C68.3591 9.33703 68.3207 9.30799 68.2774 9.2881C68.2341 9.2682 68.187 9.25793 68.1394 9.25799" fill="#009CDE"/>
<path d="M50.0331 9.2583H48.1307C47.9488 9.2583 47.7792 9.34854 47.6773 9.49944L45.0534 13.3658L43.9412 9.65034C43.9072 9.53702 43.8377 9.43764 43.7429 9.36694C43.6481 9.29623 43.5331 9.25796 43.4149 9.25779H41.5455C41.4931 9.25782 41.4415 9.27035 41.3949 9.29435C41.3483 9.31836 41.308 9.35313 41.2776 9.3958C41.2471 9.43847 41.2272 9.48779 41.2196 9.53969C41.2119 9.59158 41.2168 9.64455 41.2337 9.69419L43.3277 15.8455L41.3581 18.6265C41.3232 18.6758 41.3027 18.7338 41.2985 18.7941C41.2944 18.8544 41.3069 18.9146 41.3347 18.9683C41.3624 19.0219 41.4044 19.0669 41.4559 19.0983C41.5075 19.1298 41.5667 19.1464 41.6271 19.1465H43.5275C43.7068 19.1465 43.8754 19.0583 43.9784 18.9104L50.3032 9.77575C50.3375 9.72638 50.3577 9.66853 50.3615 9.60849C50.3653 9.54846 50.3526 9.48852 50.3248 9.4352C50.2969 9.38187 50.255 9.33719 50.2036 9.30601C50.1522 9.27482 50.0933 9.25833 50.0331 9.2583Z" fill="#003087"/>
<path d="M70.3696 5.87909L68.7474 16.2032C68.74 16.2502 68.7429 16.2983 68.7559 16.3441C68.7689 16.3899 68.7916 16.4324 68.8226 16.4686C68.8535 16.5047 68.8919 16.5338 68.9351 16.5537C68.9783 16.5736 69.0254 16.584 69.0729 16.584H70.7038C70.9738 16.584 71.2041 16.3872 71.2464 16.1201L72.8457 5.98105C72.8532 5.934 72.8503 5.88588 72.8374 5.84003C72.8244 5.79418 72.8017 5.75169 72.7708 5.71548C72.7398 5.67928 72.7014 5.65022 72.6581 5.63033C72.6148 5.61043 72.5678 5.60016 72.5202 5.60023H70.6952C70.6166 5.60003 70.5406 5.628 70.4808 5.67906C70.4211 5.73012 70.3817 5.80091 70.3696 5.87858" fill="#009CDE"/>
<path d="M13.5224 2.10514C12.6695 1.13243 11.1277 0.715406 9.1555 0.715406H3.43137C3.23613 0.715302 3.04726 0.784927 2.89875 0.911749C2.75025 1.03857 2.65185 1.21426 2.62127 1.40721L0.238893 16.5336C0.227846 16.6038 0.232133 16.6755 0.25146 16.7439C0.270787 16.8123 0.304694 16.8756 0.350844 16.9296C0.396994 16.9836 0.454291 17.0269 0.518787 17.0566C0.583282 17.0863 0.653444 17.1016 0.724438 17.1016H4.25827L5.1458 11.4687L5.11829 11.6451C5.14828 11.4526 5.24602 11.277 5.39389 11.1502C5.54177 11.0234 5.73005 10.9535 5.92482 10.9533H7.6041C10.9031 10.9533 13.4862 9.61253 14.2407 5.73393C14.2632 5.61922 14.2825 5.50758 14.2993 5.39848C14.5235 3.96491 14.2978 2.98914 13.5229 2.10565" fill="#003087"/>
<path d="M6.09892 5.41785C6.1257 5.24926 6.21165 5.09573 6.34135 4.98483C6.47104 4.87392 6.636 4.8129 6.8066 4.81271H11.2942C11.8256 4.81271 12.3213 4.84738 12.7743 4.91977C13.0219 4.95963 13.2669 5.01445 13.5079 5.08393C13.7817 5.16093 14.0465 5.26653 14.2982 5.39899C14.5234 3.96491 14.2971 2.98965 13.5222 2.10565C12.6688 1.13345 11.1276 0.716427 9.15536 0.716427H3.43071C3.23565 0.716566 3.04703 0.786299 2.89873 0.913099C2.75044 1.0399 2.65219 1.21546 2.62164 1.40823L0.238241 16.5331C0.227119 16.6033 0.231333 16.675 0.250594 16.7434C0.269854 16.8118 0.303702 16.8752 0.349805 16.9292C0.395908 16.9833 0.45317 17.0266 0.517645 17.0564C0.58212 17.0861 0.652275 17.1016 0.723276 17.1016H4.25762L5.14515 11.4682L6.09892 5.41785Z" fill="#003087"/>
<path d="M14.2987 5.39857C14.2812 5.51073 14.2617 5.62257 14.2401 5.73402C13.4856 9.61211 10.9025 10.9534 7.60349 10.9534H5.9237C5.72896 10.9535 5.54069 11.0233 5.39288 11.1502C5.24507 11.2771 5.14746 11.4526 5.11768 11.6452L4.25766 17.1011L4.0131 18.6489C4.00338 18.7104 4.00709 18.7732 4.02397 18.8331C4.04086 18.8929 4.07052 18.9484 4.11091 18.9957C4.1513 19.043 4.20146 19.081 4.25793 19.107C4.3144 19.1331 4.37585 19.1465 4.43802 19.1465H7.41702C7.76959 19.1465 8.06917 18.8895 8.1247 18.5413L8.15374 18.3894L8.7152 14.8289L8.75087 14.6322C8.77756 14.4634 8.86356 14.3098 8.99338 14.1988C9.12321 14.0879 9.28834 14.027 9.45906 14.027H9.90487C12.7906 14.027 15.0502 12.8545 15.7105 9.4612C15.9857 8.04395 15.843 6.85967 15.1144 6.02818C14.8831 5.77039 14.6066 5.55702 14.2987 5.39857Z" fill="#009CDE"/>
<path d="M13.5085 5.0853C13.3933 5.05114 13.2746 5.02055 13.1524 4.99353C13.0301 4.96651 12.9037 4.94255 12.7743 4.92216C12.3209 4.84824 11.8256 4.81357 11.2937 4.81357H6.80664C6.63585 4.81336 6.47061 4.87431 6.34082 4.98539C6.21102 5.09647 6.12523 5.25036 6.09896 5.41922L5.14519 11.4706L5.11768 11.6465C5.14746 11.4539 5.24507 11.2784 5.39287 11.1515C5.54068 11.0246 5.72895 10.9548 5.92369 10.9547H7.60348C10.9024 10.9547 13.4856 9.61389 14.2401 5.7353C14.2625 5.62059 14.2814 5.50946 14.2987 5.39985C14.0994 5.29552 13.8919 5.20787 13.6782 5.13781C13.6226 5.11946 13.5661 5.10212 13.5085 5.08479" fill="#012169"/>
</svg>
