<svg width="48" height="32" viewBox="0 0 48 32" fill="none" xmlns="http://www.w3.org/2000/svg">
<path d="M48 26.7422V31.0857H0V26.7422H48Z" fill="#F7B600"/>
<path fill-rule="evenodd" clip-rule="evenodd" d="M48 5.25755V0.914062H0V5.25755H48ZM32.279 10.2908C31.5692 10.0455 30.6783 9.82485 29.5904 9.82485C26.5651 9.82485 24.4369 11.4467 24.4198 13.7711C24.4039 15.1936 25.4555 16.0951 26.4747 16.6882L26.7282 16.8302L26.8532 16.8965L27.0975 17.0206L27.2554 17.0991L27.4037 17.1753L27.6722 17.3211L27.8074 17.3999C28.4554 17.7887 28.6897 18.103 28.6853 18.5039C28.677 19.3049 27.7334 19.6594 26.8552 19.6729C25.7207 19.6906 24.9378 19.4542 24.3198 19.1947L24.0645 19.0827L23.7123 18.9183L23.1569 21.5355L23.2894 21.5934C24.0284 21.8993 25.2729 22.1552 26.5589 22.1692C29.7065 22.1692 31.7879 20.6336 31.8839 18.2412L31.8874 18.084L31.8836 17.9109C31.8241 16.6642 31.0621 15.9044 30.1969 15.3416L29.9589 15.1928C29.9189 15.1687 29.8789 15.145 29.8388 15.1216L29.5981 14.985L29.3196 14.8337L28.7864 14.5494L28.5403 14.4122L28.4243 14.344C27.9327 14.0481 27.5928 13.7487 27.601 13.3509C27.6104 12.9231 28.0145 12.4674 28.8984 12.3509L29.0299 12.3367L29.2397 12.3237L29.4957 12.3208L29.6268 12.3243C30.2131 12.3469 31.0311 12.4735 31.9166 12.8852L32.4526 10.3525L32.279 10.2908ZM21.056 21.9817L23.5861 10.0429H20.5261L17.9958 21.9817H21.056ZM40.2337 10.0429L42.7059 21.9817H39.8763L39.5055 20.1989H35.58L34.9418 21.9817H31.7281L36.32 10.9181C36.5249 10.4227 36.9703 10.0897 37.5071 10.0475L37.6234 10.0429H40.2337ZM11.5262 11.2594C11.3744 10.4884 10.7777 10.0429 10.1145 10.0429H4.90715L4.83496 10.3894C5.903 10.6242 7.11793 11.0014 7.85379 11.4049C8.30367 11.6525 8.43263 11.8678 8.58045 12.4537L11.0207 21.9817H14.2551L19.2134 10.0429H15.9985L12.8151 18.1686L11.5262 11.2594ZM38.0714 13.2685L36.4604 17.7522H38.9981L38.0714 13.2685Z" fill="#1A1F71"/>
</svg>
