<svg width="20" height="22" viewBox="0 0 20 22" fill="none" xmlns="http://www.w3.org/2000/svg">
<g clip-path="url(#clip0_201_3188)">
<path d="M2.05404 7.12671C1.67498 7.12671 1.35336 7.2589 1.08898 7.52327C0.82461 7.78765 0.692383 8.10489 0.692383 8.47516V14.1602C0.692383 14.5398 0.82457 14.8611 1.08898 15.1255C1.35336 15.3899 1.67498 15.5221 2.05404 15.5221C2.43282 15.5221 2.75249 15.3899 3.01276 15.1255C3.27252 14.8611 3.40276 14.5398 3.40276 14.1602V8.47516C3.40276 8.10485 3.27057 7.78765 3.00616 7.52327C2.74175 7.2589 2.4243 7.12671 2.05404 7.12671Z" fill="#26C196"/>
<path d="M13.0012 2.02291L13.9399 0.291223C14.0015 0.176578 13.9796 0.0886653 13.874 0.0268478C13.7593 -0.0264568 13.6712 0.000553543 13.6096 0.105969L12.6577 1.8515C11.8202 1.48119 10.9343 1.2957 10.0002 1.2957C9.06584 1.2957 8.17991 1.48123 7.34267 1.8515L6.39079 0.105969C6.32893 0.000553543 6.24082 -0.0262181 6.12641 0.0268478C6.02052 0.0889437 5.9986 0.176578 6.06046 0.291223L6.99921 2.02291C6.04733 2.50834 5.28921 3.18439 4.72514 4.05254C4.16106 4.92116 3.87891 5.87038 3.87891 6.90187H16.1082C16.1082 5.87062 15.826 4.92136 15.2619 4.05254C14.6978 3.18439 13.9441 2.50834 13.0012 2.02291ZM7.57395 4.54167C7.47243 4.64342 7.35118 4.69406 7.21025 4.69406C7.06903 4.69406 6.95025 4.64342 6.85334 4.54167C6.75644 4.44039 6.70799 4.31962 6.70799 4.1782C6.70799 4.03726 6.75644 3.91625 6.85334 3.81474C6.95025 3.71346 7.06931 3.66282 7.21025 3.66282C7.35118 3.66282 7.47243 3.71346 7.57395 3.81474C7.67523 3.91649 7.72611 4.03726 7.72611 4.1782C7.72583 4.31938 7.67499 4.44039 7.57395 4.54167ZM13.1465 4.54167C13.0494 4.64342 12.9303 4.69406 12.7896 4.69406C12.6484 4.69406 12.5272 4.64342 12.4259 4.54167C12.3244 4.44039 12.2737 4.31962 12.2737 4.1782C12.2737 4.03726 12.3244 3.91625 12.4259 3.81474C12.5272 3.71346 12.6484 3.66282 12.7896 3.66282C12.9306 3.66282 13.0494 3.71346 13.1465 3.81474C13.2435 3.91649 13.2919 4.03726 13.2919 4.1782C13.2919 4.31938 13.2435 4.44039 13.1465 4.54167Z" fill="#26C196"/>
<path d="M3.93164 16.183C3.93164 16.5889 4.07258 16.9324 4.3545 17.2143C4.63665 17.4963 4.98019 17.6372 5.38574 17.6372H6.36416L6.37757 20.6387C6.37757 21.0177 6.50975 21.3396 6.77413 21.604C7.0385 21.8684 7.35598 22.0006 7.72601 22.0006C8.10483 22.0006 8.42665 21.8684 8.69107 21.604C8.95548 21.3396 9.08767 21.0178 9.08767 20.6387V17.6375H10.9121V20.6387C10.9121 21.0177 11.0443 21.3396 11.3087 21.604C11.5731 21.8684 11.8946 22.0006 12.2737 22.0006C12.6526 22.0006 12.9744 21.8684 13.2388 21.604C13.5032 21.3396 13.6353 21.0178 13.6353 20.6387V17.6375H14.627C15.0235 17.6375 15.3627 17.4965 15.6451 17.2146C15.927 16.9327 16.068 16.5891 16.068 16.1833V7.37769H3.93164V16.183Z" fill="#26C196"/>
<path d="M17.9461 7.12671C17.5758 7.12671 17.2586 7.25695 16.9942 7.51671C16.7298 7.77695 16.5977 8.09662 16.5977 8.47516V14.1602C16.5977 14.5398 16.7298 14.8611 16.9942 15.1255C17.2586 15.3899 17.5761 15.5221 17.9461 15.5221C18.325 15.5221 18.6468 15.3899 18.9112 15.1255C19.1756 14.8611 19.3078 14.5398 19.3078 14.1602V8.47516C19.3078 8.09658 19.1756 7.77695 18.9112 7.51671C18.6468 7.25695 18.325 7.12671 17.9461 7.12671Z" fill="#26C196"/>
</g>
<defs>
<clipPath id="clip0_201_3188">
<rect width="22" height="22" fill="white" transform="translate(-1)"/>
</clipPath>
</defs>
</svg>
