<svg width="20" height="22" viewBox="0 0 20 22" fill="none" xmlns="http://www.w3.org/2000/svg">
<g clip-path="url(#clip0_201_3174)">
<path d="M16.6746 21.119C15.3872 22.2762 13.9667 22.0958 12.6128 21.5502C11.1734 20.9936 9.85748 20.9584 8.33729 21.5502C6.44418 22.307 5.43943 22.087 4.29929 21.119C-2.13775 14.981 -1.18764 5.63099 6.12827 5.27899C7.90261 5.36699 9.14489 6.18759 10.19 6.25579C11.7435 5.96319 13.2304 5.12499 14.8931 5.23499C16.8907 5.38459 18.3848 6.11499 19.3824 7.42839C15.2731 9.71638 16.247 14.7324 20.0214 16.1404C19.266 17.9774 18.2969 19.7924 16.6722 21.1344L16.6746 21.119ZM10.0475 5.21299C9.8551 2.48499 12.2423 0.240996 14.9881 0.0209961C15.3658 3.16699 11.9002 5.52099 10.0475 5.21299Z" fill="#141414"/>
</g>
<defs>
<clipPath id="clip0_201_3174">
<rect width="20" height="22" fill="white"/>
</clipPath>
</defs>
</svg>
