<svg width="80" height="80" viewBox="0 0 80 80" fill="none" xmlns="http://www.w3.org/2000/svg">
<circle cx="40" cy="40" r="40" fill="#ECF4FE"/>
<path d="M51.2207 32.222L51.9172 29.112C51.9794 28.8247 51.8931 28.5314 51.6884 28.3265C51.4836 28.1195 51.1986 28.0311 50.9036 28.0974L47.7965 28.7946L45.0547 27.1713C44.8038 27.0246 44.4987 27.0146 44.2377 27.1452C43.9768 27.2778 43.8062 27.5309 43.7781 27.8202L43.479 30.9945L41.0905 33.102C40.8717 33.2968 40.7694 33.5841 40.8135 33.8714C40.8577 34.1587 41.0463 34.4018 41.3153 34.5183L44.2377 35.782L45.5023 38.7072C45.5444 38.8036 45.6026 38.892 45.6809 38.9704C45.8074 39.0989 45.9699 39.1813 46.1466 39.2094C46.1907 39.2155 46.2369 39.2195 46.281 39.2195C46.5219 39.2195 46.7527 39.117 46.9133 38.9322L49.0188 36.5414L52.1902 36.2421C52.4812 36.216 52.7341 36.0432 52.8666 35.782C52.995 35.5249 52.987 35.2115 52.8385 34.9664L51.2207 32.222ZM48.5271 34.884C48.3123 34.9041 48.1136 35.0065 47.9731 35.1673L46.5279 36.8066L45.6608 34.7996C45.6187 34.7032 45.5605 34.6148 45.4822 34.5364C45.4079 34.4601 45.3176 34.3998 45.2172 34.3576L43.2141 33.4897L44.8519 32.0452C45.0145 31.9026 45.1169 31.7037 45.137 31.4887L45.3417 29.3129L47.2224 30.4259C47.3127 30.4802 47.4151 30.5163 47.5215 30.5324C47.6279 30.5485 47.7362 30.5465 47.8386 30.5224L49.9702 30.0442L49.4945 32.1778C49.4484 32.3888 49.4825 32.6077 49.5929 32.7946L50.7069 34.675L48.5271 34.884Z" fill="#1778F2"/>
<path d="M51.4696 43.5329C51.2548 43.5188 51.036 43.5108 50.8152 43.5108C49.2778 43.5108 47.6499 43.8664 45.9619 44.5716C44.9503 44.9955 43.8805 45.6002 42.7886 46.3235L33.7081 37.2366C34.4287 36.1416 35.0349 35.0708 35.4564 34.0563C36.2592 32.1316 36.6105 30.2773 36.4961 28.5434C36.48 28.3184 36.3777 28.1115 36.2071 27.9608C36.0525 27.8262 35.8558 27.7519 35.6511 27.7519C35.631 27.7519 35.6109 27.7519 35.5949 27.7539C35.3681 27.768 35.1613 27.8724 35.0128 28.0432C34.8622 28.212 34.788 28.4309 34.804 28.658C34.9064 30.217 34.5572 32.7403 32.4898 36.0171L31.2012 34.7273C31.0466 34.5706 30.8258 34.4962 30.609 34.5364C30.3903 34.5726 30.2056 34.7052 30.1053 34.9061L18.2429 58.657C18.0843 58.9764 18 59.332 18 59.6896C18 60.9633 19.0377 62 20.3082 62C20.6655 62 21.0208 61.9156 21.3399 61.7549L45.0667 49.8815C45.2674 49.783 45.4019 49.6002 45.438 49.3792C45.4742 49.1582 45.4039 48.9412 45.2453 48.7825L44.0049 47.5409C47.2826 45.4656 49.7936 45.1221 51.3572 45.2245C51.3752 45.2245 51.3953 45.2265 51.4134 45.2265C51.855 45.2265 52.2283 44.883 52.2584 44.435C52.2905 43.9709 51.9352 43.565 51.4696 43.5329ZM20.5692 60.3767C20.4849 60.4088 20.3986 60.437 20.3082 60.437C19.8948 60.437 19.5596 60.1015 19.5596 59.6876C19.5596 59.5731 19.5877 59.4566 19.6399 59.3521L20.5692 57.4917V60.3767ZM25.6072 57.8754L22.0284 59.6675V54.5746L23.7204 51.1894C23.7566 51.1954 23.7827 51.2295 23.8188 51.2295C24.0055 51.2295 24.1921 51.1592 24.3326 51.0166C24.4691 50.88 24.5454 50.6951 24.5454 50.5023C24.5454 50.3094 24.4691 50.1246 24.3326 49.99C24.3306 49.988 24.3246 49.9879 24.3226 49.9859L25.6092 47.4104V57.8754H25.6072ZM30.6452 55.3541L27.0664 57.1441V44.4872L28.4955 41.6263C28.6099 41.6966 28.7243 41.777 28.8568 41.777C29.0435 41.777 29.2301 41.7047 29.3706 41.564C29.6536 41.2808 29.6536 40.8187 29.3706 40.5354C29.2964 40.4591 29.192 40.4571 29.0977 40.4229L30.6432 37.327L30.6452 55.3541ZM35.6832 52.8307L32.1044 54.6228V37.8393L35.6832 41.4234V52.8307ZM40.7212 50.3094L37.1424 52.1015V42.882L40.7212 46.4661V50.3094ZM42.1824 49.5781V47.9267L43.2823 49.0276L42.1824 49.5781Z" fill="#1778F2"/>
<path d="M59.2434 44.7122L59.2594 43.2054C59.2634 42.9121 59.1209 42.6429 58.876 42.4842C58.6312 42.3255 58.3281 42.3014 58.0611 42.4239L56.6882 43.0527L55.2591 42.5706C54.9902 42.4761 54.6831 42.5284 54.4563 42.7152C54.2314 42.898 54.115 43.1813 54.1492 43.4706L54.3238 44.9694L53.4246 46.1808C53.2499 46.4159 53.2098 46.7192 53.3122 46.9905C53.3543 47.0989 53.4206 47.2014 53.5049 47.2858C53.6213 47.4043 53.7738 47.4867 53.9364 47.5188L55.4137 47.8162L56.2888 49.0457C56.3189 49.0859 56.349 49.1261 56.3851 49.1602C56.5497 49.323 56.7645 49.4033 56.9813 49.4033C57.1981 49.4033 57.4168 49.3209 57.5814 49.1562C57.6517 49.0859 57.7059 49.0075 57.744 48.9292L58.4586 47.6575L59.8977 47.2054C60.1767 47.119 60.3874 46.896 60.4617 46.6148C60.538 46.3315 60.4657 46.0342 60.267 45.8212L59.2434 44.7122ZM57.6276 46.1386C57.4188 46.2029 57.2482 46.3436 57.1419 46.5324L56.893 46.9744L56.5999 46.5605C56.4755 46.3837 56.2888 46.2632 56.074 46.221L55.5763 46.1205L55.8793 45.7127C56.0078 45.5399 56.066 45.325 56.0419 45.108L55.9817 44.6057L56.4634 44.7685C56.6682 44.8388 56.893 44.8267 57.0877 44.7343L57.5473 44.5234L57.5413 45.0296C57.5393 45.2466 57.6175 45.4535 57.7641 45.6143L58.1093 45.9879L57.6276 46.1386Z" fill="#1778F2"/>
<path d="M32.2148 24.5997L32.5118 26.0784C32.544 26.2431 32.6243 26.3918 32.7427 26.5103C32.825 26.5947 32.9273 26.659 33.0397 26.7032C33.1361 26.7393 33.2405 26.7574 33.3408 26.7574C33.5215 26.7574 33.7021 26.7012 33.8486 26.5907L35.0589 25.6906L36.5563 25.8654C36.8614 25.8975 37.1283 25.783 37.315 25.558C37.4977 25.333 37.5519 25.0316 37.4595 24.7544L36.9778 23.324L37.604 21.9518C37.7265 21.6846 37.7044 21.3792 37.5458 21.1341C37.3893 20.891 37.1223 20.7484 36.8333 20.7484C36.8313 20.7484 36.8293 20.7484 36.8253 20.7484L35.3179 20.7624L34.2079 19.7418C33.9931 19.5429 33.6901 19.4726 33.4131 19.547C33.1301 19.6233 32.9113 19.8343 32.823 20.1135L32.3734 21.554L31.0607 22.2933C30.8058 22.436 30.6452 22.6971 30.6311 22.9884C30.6151 23.2818 30.7475 23.557 30.9844 23.7258L32.2148 24.5997ZM33.4974 22.8679C33.6881 22.7614 33.8265 22.5886 33.8908 22.3817L34.0413 21.8975L34.4146 22.2411C34.5732 22.3857 34.7759 22.4641 34.9907 22.4641C34.9927 22.4641 34.9967 22.4641 35.0007 22.4641L35.5086 22.4601L35.2938 22.9201C35.2055 23.117 35.1934 23.338 35.2617 23.545L35.4243 24.0251L34.9205 23.9669C34.6936 23.9427 34.4889 24.003 34.3163 24.1296L33.9108 24.4309L33.8105 23.9347C33.7764 23.77 33.6961 23.6193 33.5777 23.5028C33.5455 23.4686 33.5074 23.4365 33.4713 23.4103L33.0578 23.115L33.4974 22.8679Z" fill="#1778F2"/>
<path d="M45.9017 26.2692C45.9318 26.2993 45.9639 26.3275 46.002 26.3536C46.1526 26.4661 46.3272 26.5183 46.5018 26.5183C46.7628 26.5183 47.0197 26.3998 47.1863 26.1748C48.3986 24.5274 48.9707 21.8975 48.4889 20.1838C48.3645 19.7358 47.9048 19.4746 47.4432 19.5952C46.9936 19.7217 46.7306 20.1899 46.8551 20.6419C47.1983 21.8654 46.7246 23.9387 45.8194 25.1662C45.5745 25.5038 45.6106 25.9779 45.9017 26.2692Z" fill="#1778F2"/>
<path d="M46.4938 18.6871C47.094 18.6871 47.6941 18.4581 48.1497 18.002C49.063 17.0879 49.063 15.6012 48.1497 14.6871C47.7081 14.2451 47.12 14 46.4938 14C45.8676 14 45.2795 14.2451 44.8379 14.6871C43.9246 15.6012 43.9246 17.0879 44.8379 18.002C45.2935 18.4581 45.8937 18.6871 46.4938 18.6871ZM46.0362 15.8845C46.1586 15.7619 46.3212 15.6956 46.4938 15.6956C46.6664 15.6956 46.829 15.7619 46.9534 15.8845C47.0759 16.007 47.1441 16.1718 47.1441 16.3446C47.1421 16.5173 47.0759 16.6801 46.9534 16.8026C46.8049 16.9493 46.6022 16.9794 46.4035 16.9493C46.271 16.9292 46.1365 16.9011 46.0382 16.8026C45.9157 16.6801 45.8495 16.5193 45.8475 16.3446C45.8475 16.1718 45.9157 16.007 46.0362 15.8845Z" fill="#1778F2"/>
<path d="M53.5008 33.3872C53.4667 33.6102 53.5229 33.8353 53.6554 34.0161C53.6815 34.0522 53.7076 34.0844 53.7397 34.1145C53.9023 34.2793 54.1191 34.3616 54.3398 34.3616C54.5165 34.3616 54.6931 34.3074 54.8416 34.1969C56.07 33.2928 58.1414 32.8147 59.3638 33.1602C59.8134 33.2808 60.2831 33.0236 60.4095 32.5716C60.4717 32.3546 60.4436 32.1236 60.3333 31.9267C60.2209 31.7278 60.0402 31.5871 59.8214 31.5249C58.1073 31.0467 55.4799 31.6173 53.8401 32.8307C53.6534 32.9674 53.537 33.1642 53.5008 33.3872Z" fill="#1778F2"/>
<path d="M65.3151 31.8664C64.4018 30.9523 62.9165 30.9523 62.0032 31.8664C61.09 32.7805 61.09 34.2692 62.0032 35.1813C62.4448 35.6253 63.0329 35.8684 63.6591 35.8684C64.2854 35.8684 64.8735 35.6253 65.3151 35.1813C66.2283 34.2692 66.2283 32.7805 65.3151 31.8664ZM64.1168 33.9819C63.8619 34.2351 63.4544 34.2331 63.1995 33.9819C62.9486 33.7288 62.9486 33.3169 63.1995 33.0658C63.3259 32.9392 63.4925 32.8769 63.6591 32.8769C63.8257 32.8769 63.9903 32.9392 64.1188 33.0658C64.2432 33.1924 64.3075 33.3591 64.3075 33.5239C64.3054 33.6906 64.2432 33.8554 64.1168 33.9819Z" fill="#1778F2"/>
<path d="M28.7725 33.9277C28.9993 33.9277 29.2121 33.8393 29.3726 33.6786C29.7018 33.3471 29.7018 32.8086 29.3726 32.4792C29.0515 32.1617 28.4935 32.1617 28.1744 32.4792C28.0138 32.6399 27.9255 32.8528 27.9255 33.0799C27.9255 33.3069 28.0138 33.5198 28.1744 33.6786C28.3329 33.8393 28.5457 33.9277 28.7725 33.9277Z" fill="#1778F2"/>
<path d="M25.7075 26.1326C25.9343 26.1326 26.1471 26.0442 26.3077 25.8835C26.6369 25.552 26.6369 25.0136 26.3077 24.6841C25.9865 24.3667 25.4285 24.3667 25.1094 24.6841C24.9488 24.8448 24.8605 25.0578 24.8605 25.2848C24.8605 25.5118 24.9488 25.7248 25.1094 25.8835C25.268 26.0442 25.4787 26.1326 25.7075 26.1326Z" fill="#1778F2"/>
<path d="M42.0158 25.118C42.2406 25.118 42.4554 25.0296 42.6139 24.8709C42.7745 24.7102 42.8628 24.4972 42.8628 24.2722C42.8628 24.0452 42.7745 23.8302 42.6139 23.6695C42.2928 23.3521 41.7348 23.3501 41.4157 23.6695C41.2551 23.8302 41.1668 24.0432 41.1668 24.2702C41.1668 24.4972 41.2551 24.7102 41.4157 24.8689C41.5742 25.0296 41.787 25.118 42.0158 25.118Z" fill="#1778F2"/>
<path d="M53.3082 26.6168C53.4727 26.7815 53.6895 26.8639 53.9083 26.8639C54.1271 26.8639 54.3439 26.7815 54.5084 26.6148C54.8396 26.2833 54.8376 25.7449 54.5064 25.4154C54.1893 25.0959 53.6293 25.0959 53.3082 25.4154C52.977 25.7469 52.977 26.2853 53.3082 26.6168Z" fill="#1778F2"/>
<path d="M38.6959 40.0412C38.5354 40.2019 38.4471 40.4149 38.4471 40.6419C38.4471 40.8689 38.5354 41.0819 38.6959 41.2426C38.8545 41.4033 39.0693 41.4917 39.2941 41.4917C39.5209 41.4917 39.7357 41.4033 39.8942 41.2446C40.0548 41.0839 40.1431 40.8709 40.1431 40.6439C40.1431 40.4169 40.0548 40.2039 39.8942 40.0452C39.5791 39.7238 39.0151 39.7238 38.6959 40.0412Z" fill="#1778F2"/>
<path d="M56.3209 38.2732C55.9917 38.6047 55.9917 39.1431 56.3209 39.4746C56.4855 39.6394 56.7023 39.7218 56.9211 39.7218C57.1398 39.7218 57.3566 39.6394 57.5212 39.4726C57.8504 39.1411 57.8504 38.6027 57.5212 38.2712C57.19 37.9437 56.6501 37.9437 56.3209 38.2732Z" fill="#1778F2"/>
<path d="M46.9735 50.0964C46.6443 49.767 46.1024 49.7649 45.7732 50.0964C45.4441 50.4279 45.4441 50.9663 45.7732 51.2978C45.9378 51.4626 46.1546 51.545 46.3734 51.545C46.5922 51.545 46.8089 51.4626 46.9735 51.2958C47.3027 50.9684 47.3027 50.4299 46.9735 50.0964C46.9735 50.0984 46.9735 50.0984 46.9735 50.0964Z" fill="#1778F2"/>
<path d="M55.2772 53.6846C54.948 53.3551 54.4061 53.3531 54.0769 53.6846C53.7477 54.0161 53.7477 54.5545 54.0769 54.886C54.2415 55.0507 54.4583 55.1331 54.677 55.1331C54.8958 55.1331 55.1126 55.0507 55.2772 54.884C55.6064 54.5545 55.6064 54.0161 55.2772 53.6846C55.2772 53.6866 55.2772 53.6866 55.2772 53.6846Z" fill="#1778F2"/>
<path d="M37.9232 36.232C38.0838 36.3908 38.2965 36.4792 38.5233 36.4792C38.7501 36.4792 38.9629 36.3908 39.1215 36.232C39.282 36.0713 39.3704 35.8584 39.3704 35.6313C39.3704 35.4043 39.282 35.1914 39.1215 35.0326C38.8043 34.7132 38.2443 34.7132 37.9232 35.0326C37.7626 35.1934 37.6743 35.4063 37.6743 35.6334C37.6743 35.8584 37.7626 36.0733 37.9232 36.232Z" fill="#1778F2"/>
<path d="M45.2674 41.9056C45.428 41.7449 45.5163 41.5319 45.5163 41.3049C45.5163 41.0779 45.428 40.8649 45.2674 40.7062C44.9503 40.3847 44.3883 40.3888 44.0691 40.7062C43.9086 40.8669 43.8203 41.0799 43.8203 41.3049C43.8203 41.5319 43.9086 41.7469 44.0691 41.9056C44.2277 42.0663 44.4425 42.1547 44.6693 42.1547C44.8941 42.1527 45.1089 42.0643 45.2674 41.9056Z" fill="#1778F2"/>
<path d="M33.381 51.2496C33.0959 51.5329 33.0959 51.995 33.381 52.2783C33.5215 52.4209 33.7081 52.4912 33.8948 52.4912C34.0815 52.4912 34.2681 52.4209 34.4086 52.2783C34.6936 51.995 34.6936 51.5329 34.4086 51.2496C34.1256 50.9663 33.662 50.9663 33.381 51.2496Z" fill="#1778F2"/>
<path d="M33.8948 49.339C34.0815 49.339 34.2681 49.2687 34.4086 49.1281C34.5451 48.9915 34.6214 48.8086 34.6214 48.6138C34.6214 48.4189 34.5451 48.2361 34.4086 48.0994C34.1256 47.8142 33.664 47.8142 33.381 48.0994C33.2445 48.2361 33.1682 48.4209 33.1682 48.6138C33.1682 48.8066 33.2445 48.9915 33.381 49.1261C33.5215 49.2687 33.7081 49.339 33.8948 49.339Z" fill="#1778F2"/>
<path d="M33.8948 46.1868C34.0815 46.1868 34.2681 46.1165 34.4086 45.9759C34.5451 45.8393 34.6214 45.6565 34.6214 45.4616C34.6214 45.2667 34.5451 45.0839 34.4086 44.9473C34.1256 44.662 33.664 44.662 33.381 44.9473C33.2445 45.0839 33.1682 45.2687 33.1682 45.4616C33.1682 45.6544 33.2445 45.8393 33.381 45.9739C33.5215 46.1165 33.7081 46.1868 33.8948 46.1868Z" fill="#1778F2"/>
<path d="M33.8948 43.0367C34.0815 43.0367 34.2681 42.9664 34.4086 42.8257C34.6936 42.5424 34.6936 42.0804 34.4086 41.7951C34.1256 41.5138 33.664 41.5138 33.381 41.7951C33.0959 42.0784 33.0959 42.5404 33.381 42.8257C33.5215 42.9664 33.7081 43.0367 33.8948 43.0367Z" fill="#1778F2"/>
<path d="M28.3409 53.1421C28.0579 53.4254 28.0579 53.8875 28.3409 54.1708C28.4814 54.3134 28.6681 54.3837 28.8568 54.3837C29.0435 54.3837 29.2301 54.3114 29.3706 54.1708C29.6536 53.8875 29.6536 53.4254 29.3706 53.1421C29.0856 52.8549 28.622 52.8589 28.3409 53.1421Z" fill="#1778F2"/>
<path d="M23.3029 56.2923C23.1665 56.4289 23.0902 56.6118 23.0902 56.8066C23.0902 57.0015 23.1665 57.1843 23.3029 57.3209C23.4434 57.4636 23.6301 57.5339 23.8168 57.5339C24.0034 57.5339 24.1901 57.4636 24.3306 57.3209C24.4671 57.1843 24.5434 56.9995 24.5434 56.8066C24.5434 56.6138 24.4671 56.4289 24.3306 56.2943C24.0476 56.009 23.586 56.009 23.3029 56.2923Z" fill="#1778F2"/>
<path d="M23.3029 53.1401C23.1665 53.2767 23.0902 53.4596 23.0902 53.6544C23.0902 53.8493 23.1665 54.0321 23.3029 54.1688C23.4434 54.3114 23.6301 54.3817 23.8168 54.3817C24.0034 54.3817 24.1901 54.3114 24.3306 54.1688C24.4671 54.0321 24.5434 53.8473 24.5434 53.6544C24.5434 53.4616 24.4671 53.2767 24.3306 53.1421C24.0476 52.8569 23.586 52.8589 23.3029 53.1401Z" fill="#1778F2"/>
<path d="M28.3409 49.99C28.0579 50.2732 28.0579 50.7353 28.3409 51.0186C28.4814 51.1612 28.6681 51.2315 28.8568 51.2315C29.0435 51.2315 29.2301 51.1592 29.3706 51.0186C29.6536 50.7353 29.6536 50.2732 29.3706 49.99C29.0856 49.7027 28.622 49.7067 28.3409 49.99Z" fill="#1778F2"/>
<path d="M28.3409 46.8378C28.0579 47.121 28.0579 47.5831 28.3409 47.8664C28.4814 48.009 28.6681 48.0794 28.8568 48.0794C29.0435 48.0794 29.2301 48.007 29.3706 47.8664C29.6536 47.5831 29.6536 47.121 29.3706 46.8378C29.0856 46.5505 28.622 46.5525 28.3409 46.8378Z" fill="#1778F2"/>
<path d="M28.3409 43.6856C28.0579 43.9689 28.0579 44.4309 28.3409 44.7142C28.4814 44.8569 28.6681 44.9272 28.8568 44.9272C29.0435 44.9272 29.2301 44.8548 29.3706 44.7142C29.6536 44.4309 29.6536 43.9689 29.3706 43.6856C29.0856 43.4003 28.622 43.4003 28.3409 43.6856Z" fill="#1778F2"/>
<path d="M38.9308 49.9699C39.1174 49.9699 39.3041 49.8995 39.4446 49.7569C39.5811 49.6203 39.6574 49.4355 39.6574 49.2426C39.6574 49.0497 39.5811 48.8649 39.4446 48.7303C39.1616 48.445 38.7 48.447 38.4169 48.7303C38.2805 48.8669 38.2042 49.0497 38.2042 49.2446C38.2042 49.4395 38.2805 49.6223 38.4169 49.7589C38.5595 49.8996 38.7461 49.9699 38.9308 49.9699Z" fill="#1778F2"/>
<path d="M38.9308 46.8177C39.1174 46.8177 39.3041 46.7474 39.4446 46.6047C39.5811 46.4681 39.6574 46.2833 39.6574 46.0904C39.6574 45.8975 39.5811 45.7127 39.4446 45.5781C39.1616 45.2928 38.7 45.2948 38.4169 45.5781C38.2805 45.7147 38.2042 45.8975 38.2042 46.0924C38.2042 46.2873 38.2805 46.4701 38.4169 46.6067C38.5595 46.7474 38.7461 46.8177 38.9308 46.8177Z" fill="#1778F2"/>
</svg>
