<svg width="48" height="48" viewBox="0 0 48 48" fill="none" xmlns="http://www.w3.org/2000/svg">
<g clip-path="url(#clip0_129_1840)">
<path d="M37.0883 26.5442L33.9063 42.9043L7.73016 37.8132L10.9121 21.4531" stroke="#141414" stroke-width="3" stroke-linecap="round" stroke-linejoin="round"/>
<path d="M41.9512 19.0006L9.23096 12.6367L7.63998 20.8168L40.3602 27.1807L41.9512 19.0006Z" stroke="#141414" stroke-width="3" stroke-linecap="round" stroke-linejoin="round"/>
<path d="M20.8181 40.3585L25.5911 15.8184" stroke="#141414" stroke-width="3" stroke-linecap="round" stroke-linejoin="round"/>
<path d="M18.229 14.3876L25.5911 15.8195C25.5911 15.8195 25.546 7.32128 19.82 6.2076C18.7353 5.99662 17.6111 6.2252 16.6949 6.84304C15.7787 7.46089 15.1455 8.41739 14.9345 9.50213C14.7235 10.5869 14.9521 11.711 15.5699 12.6272C16.1878 13.5434 17.1443 14.1767 18.229 14.3876Z" stroke="#141414" stroke-width="3" stroke-linecap="round" stroke-linejoin="round"/>
<path d="M32.9532 17.2506L25.5912 15.8187C25.5912 15.8187 28.8181 7.95687 34.5442 9.07055C35.6289 9.28152 36.5854 9.91477 37.2033 10.831C37.8211 11.7472 38.0497 12.8713 37.8387 13.9561C37.6277 15.0408 36.9945 15.9973 36.0783 16.6152C35.1621 17.233 34.0379 17.4616 32.9532 17.2506Z" stroke="#141414" stroke-width="3" stroke-linecap="round" stroke-linejoin="round"/>
</g>
<defs>
<clipPath id="clip0_129_1840">
<rect width="40" height="40" fill="white" transform="translate(8.18628 0.548828) rotate(11.0063)"/>
</clipPath>
</defs>
</svg>
