<svg width="177" height="40" viewBox="0 0 177 40" fill="none" xmlns="http://www.w3.org/2000/svg">
<path d="M35.4962 15.0635V33.1174H39.6791V15.0635H35.4962ZM39.5003 6.29682C38.9733 5.83125 38.2917 5.58381 37.5918 5.60406C36.8872 5.5845 36.2033 5.84537 35.6874 6.33041C35.4377 6.56146 35.2404 6.8443 35.1091 7.15954C34.9778 7.47479 34.9155 7.81498 34.9265 8.1568C34.919 8.49646 34.9837 8.8338 35.1164 9.14601C35.2491 9.45821 35.4467 9.73798 35.6958 9.96639C36.2116 10.4514 36.8955 10.7123 37.6001 10.6928C37.9553 10.7046 38.3091 10.6433 38.64 10.5126C38.971 10.382 39.2722 10.1847 39.5252 9.93281C39.771 9.6885 39.9646 9.39592 40.094 9.07313C40.2235 8.75034 40.286 8.40419 40.2778 8.05604C40.2867 7.72276 40.2215 7.3917 40.0869 7.08725C39.9524 6.78279 39.7519 6.51269 39.5003 6.29682Z" fill="white"/>
<path d="M54.7393 29.1211C54.0656 29.6375 53.2352 29.9016 52.39 29.8684C52.0519 29.8919 51.7126 29.8423 51.395 29.7228C51.0773 29.6033 50.7886 29.4168 50.548 29.1757C50.0897 28.6118 49.8621 27.8923 49.9119 27.1645V18.5784H54.6977V15.2195H49.9202V11.0797H45.7373V15.2027H42.7935V18.5616H45.7373V27.2653C45.7373 29.247 46.2723 30.7557 47.3423 31.7914C48.4122 32.827 49.9368 33.3463 51.916 33.3491C52.668 33.3517 53.4167 33.2485 54.1405 33.0426C54.7932 32.8656 55.4031 32.5556 55.9326 32.1315L54.7393 29.1211Z" fill="white"/>
<path d="M72.2233 16.7942C70.8373 15.5206 68.8234 14.8839 66.1818 14.8839C64.7676 14.8766 63.3595 15.0703 61.9989 15.4591C60.7851 15.7899 59.642 16.3435 58.6267 17.0923L60.2899 20.1699C61.0175 19.5751 61.8519 19.1275 62.7473 18.8515C63.6996 18.5399 64.6942 18.3798 65.6953 18.3771C67.1672 18.3771 68.276 18.7158 69.0216 19.3932C69.4075 19.7653 69.7079 20.2183 69.9018 20.7202C70.0958 21.2222 70.1785 21.7609 70.1443 22.2986V22.5673H65.5123C62.9455 22.5673 61.0661 23.0571 59.8741 24.0368C59.2945 24.5012 58.8309 25.0963 58.5204 25.7745C58.2099 26.4526 58.0612 27.1948 58.0862 27.9415C58.0754 28.9347 58.3656 29.9074 58.9178 30.7294C59.4964 31.5808 60.3024 32.2491 61.2421 32.6565C62.351 33.1374 63.5489 33.3736 64.7556 33.3493C65.9307 33.3804 67.0997 33.1674 68.1901 32.7237C69.0817 32.3527 69.8443 31.7229 70.3813 30.9141V33.11H74.3314V22.5337C74.3203 19.9642 73.6176 18.051 72.2233 16.7942ZM70.1443 27.488C69.8355 28.3732 69.2235 29.1178 68.4187 29.5873C67.572 30.0825 66.607 30.3337 65.6287 30.3137C64.7469 30.3639 63.8724 30.1269 63.134 29.6377C62.8458 29.4333 62.6125 29.1597 62.455 28.8417C62.2975 28.5236 62.2208 28.171 62.2317 27.8155C62.2317 26.2145 63.4361 25.4139 65.845 25.4139H70.1609L70.1443 27.488Z" fill="white"/>
<path d="M79.6704 8.03613V33.1101H83.8533V8.03613H79.6704Z" fill="white"/>
<path d="M89.3376 15.0635V33.1174H93.5205V15.0635H89.3376ZM93.3541 6.29682C92.8272 5.83125 92.1455 5.58381 91.4456 5.60406C90.7411 5.5845 90.0571 5.84537 89.5413 6.33041C89.2922 6.55883 89.0947 6.8386 88.9619 7.1508C88.8292 7.463 88.7645 7.80035 88.7721 8.14001C88.7645 8.47967 88.8292 8.81701 88.9619 9.12921C89.0947 9.44141 89.2922 9.72119 89.5413 9.9496C90.0571 10.4346 90.7411 10.6955 91.4456 10.676C91.8008 10.688 92.1547 10.6268 92.4857 10.4962C92.8167 10.3655 93.1179 10.1681 93.3708 9.91601C93.6165 9.67171 93.8101 9.37913 93.9396 9.05634C94.069 8.73354 94.1316 8.38739 94.1234 8.03924C94.1308 7.70943 94.0657 7.38207 93.9326 7.08076C93.7996 6.77945 93.602 6.5117 93.3541 6.29682Z" fill="white"/>
<path d="M130.684 8.17883V33.2151H134.842V8.17883H130.684Z" fill="white"/>
<path d="M153.187 16.9036C151.798 15.644 149.782 14.9933 147.158 14.9933C145.745 14.9857 144.339 15.1794 142.979 15.5685C141.764 15.9022 140.621 16.4602 139.607 17.2143L141.241 20.2835C141.97 19.6931 142.802 19.2472 143.695 18.9693C144.651 18.6563 145.65 18.4962 146.655 18.4949C148.127 18.4949 149.233 18.835 149.981 19.5067C150.367 19.8779 150.668 20.3301 150.862 20.8314C151.056 21.3327 151.139 21.8709 151.104 22.408V22.6725H146.489C143.927 22.6725 142.049 23.1623 140.855 24.142C140.277 24.6057 139.814 25.1997 139.505 25.8763C139.195 26.5529 139.046 27.2933 139.071 28.0383C139.063 29.0298 139.353 30.0005 139.903 30.8219C140.476 31.6684 141.272 32.3359 142.202 32.7491C144.422 33.6492 146.896 33.6732 149.133 32.8163C150.025 32.4482 150.788 31.8196 151.324 31.0109V33.2026H155.27V22.6725C155.276 20.0973 154.582 18.1744 153.187 16.9036ZM151.108 27.5806C150.8 28.4648 150.19 29.2091 149.387 29.6799C148.539 30.171 147.574 30.4206 146.597 30.4021C145.715 30.4526 144.84 30.2156 144.102 29.7261C143.814 29.5217 143.581 29.2481 143.423 28.9301C143.266 28.612 143.189 28.2594 143.2 27.9039C143.2 26.3085 144.403 25.5107 146.809 25.5107H151.1L151.108 27.5806Z" fill="white"/>
<path d="M172.971 15.1981L167.341 28.5245L161.744 15.1981H157.383L165.17 33.2815L164.867 34.0078C164.584 34.7462 164.131 35.4055 163.545 35.9308C163.025 36.3192 162.39 36.5163 161.744 36.4892C161.173 36.4877 160.608 36.3722 160.081 36.1491C159.555 35.9398 159.074 35.6305 158.663 35.238L157 38.345C157.619 38.8981 158.348 39.3117 159.137 39.5584C159.989 39.8422 160.881 39.9841 161.777 39.9782C163.216 40.0188 164.63 39.6001 165.819 38.7816C166.933 37.9797 167.877 36.6025 168.663 34.646L177 15.1981H172.971Z" fill="white"/>
<path d="M0.125372 10.7729H4.9195L4.76565 10.458C4.63019 10.1839 4.54163 9.88866 4.5037 9.58473C4.49531 9.49957 4.49531 9.41378 4.5037 9.32861C4.49957 9.28252 4.49957 9.23615 4.5037 9.19006C4.52913 8.20841 4.85322 7.25846 5.43194 6.46928C6.01065 5.6801 6.81593 5.08995 7.73837 4.779C8.66082 4.46806 9.65569 4.4514 10.5878 4.73129C11.52 5.01118 12.3442 5.57404 12.9485 6.34341C13.2155 6.7855 13.5056 7.21296 13.8175 7.62399C14.0053 7.8892 14.253 8.10535 14.5401 8.25448C14.8272 8.4036 15.1454 8.48139 15.4682 8.48139C15.7911 8.48139 16.1093 8.4036 16.3964 8.25448C16.6835 8.10535 16.9312 7.8892 17.1189 7.62399C17.5929 6.95221 17.9838 6.3896 17.9838 6.34341C18.5869 5.57522 19.4093 5.01276 20.3396 4.73221C21.2698 4.45166 22.263 4.46658 23.1845 4.77493C24.1061 5.08329 24.9116 5.6702 25.4918 6.45617C26.0721 7.24213 26.3991 8.18919 26.4286 9.16907C26.4286 9.21945 26.4286 9.27403 26.4286 9.32861C26.4349 9.41387 26.4349 9.49948 26.4286 9.58473C26.3877 9.88908 26.2963 10.1843 26.1583 10.458L26.0045 10.7729H30.7903C30.8475 10.4171 30.8836 10.0582 30.8984 9.69809C30.9068 9.57508 30.9068 9.45163 30.8984 9.32861C30.8984 9.13128 30.8984 8.90876 30.8735 8.73661C30.7684 7.02288 30.1958 5.37191 29.219 3.96648C28.2422 2.56105 26.8993 1.45597 25.3389 0.77358C23.7786 0.0911875 22.0617 -0.141902 20.3783 0.100115C18.6949 0.342131 17.1106 1.04981 15.8009 2.14482C15.6803 2.24979 15.5597 2.34635 15.4474 2.45552C15.3352 2.34635 15.2188 2.24979 15.0982 2.14482C13.7893 1.04908 12.2057 0.340374 10.5227 0.0971474C8.83968 -0.146079 7.12282 0.0856567 5.56214 0.766707C4.00146 1.44776 2.65782 2.55156 1.67993 3.95597C0.702035 5.36037 0.128024 7.0106 0.0214232 8.72402C0.0214232 8.91715 0.0214232 9.12288 0.0214232 9.32861C0.0130412 9.45163 0.0130412 9.57508 0.0214232 9.69809C0.0348481 10.0581 0.0695596 10.4171 0.125372 10.7729Z" fill="#26C196"/>
<path d="M23.8957 14.9921L22.0953 18.6323L17.771 27.3696C17.5564 27.8037 17.2262 28.1689 16.8174 28.4241C16.4087 28.6794 15.9377 28.8146 15.4571 28.8146C14.9766 28.8146 14.5055 28.6794 14.0968 28.4241C13.6881 28.1689 13.3579 27.8037 13.1432 27.3696L8.81063 18.6323L7.01023 14.9921H1.9209C1.99158 15.0845 2.05811 15.181 2.13295 15.2692L9.14742 29.3891C9.73493 30.5735 10.6373 31.5695 11.7535 32.2656C12.8696 32.9616 14.1556 33.3303 15.4675 33.3303C16.7794 33.3303 18.0654 32.9616 19.1816 32.2656C20.2978 31.5695 21.2001 30.5735 21.7876 29.3891L28.7647 15.2818C28.8437 15.1852 28.9143 15.0845 28.9892 14.9879L23.8957 14.9921Z" fill="white"/>
<path d="M127.728 17.8433C127.73 19.1711 127.364 20.4731 126.673 21.6027C125.982 22.7323 124.992 23.6449 123.816 24.2377L107.712 32.3662V27.2901L121.828 20.1819C122.259 19.9655 122.622 19.632 122.876 19.2189C123.129 18.8057 123.263 18.3293 123.263 17.8433C123.263 17.3572 123.129 16.8808 122.876 16.4676C122.622 16.0545 122.259 15.721 121.828 15.5046L107.084 7.97656C106.69 7.77332 106.251 7.67728 105.809 7.6979C105.367 7.71851 104.938 7.85508 104.564 8.09412C104.186 8.32411 103.873 8.65011 103.658 9.03975C103.443 9.42938 103.333 9.86908 103.338 10.3152V39.9992H98.8472V10.311C98.8448 9.09165 99.1518 7.89203 99.7389 6.82653C100.326 5.76102 101.174 4.86516 102.201 4.22438C103.228 3.58359 104.401 3.21925 105.608 3.16609C106.814 3.11293 108.014 3.37273 109.092 3.92072L123.816 11.453C124.994 12.0428 125.985 12.9541 126.676 14.0835C127.368 15.2129 127.732 16.5154 127.728 17.8433Z" fill="#FF917F"/>
</svg>
