<svg width="175" height="40" viewBox="0 0 175 40" fill="none" xmlns="http://www.w3.org/2000/svg">
<path d="M35.0952 15.0645V33.1185H39.2308V15.0645H35.0952ZM39.0541 6.29786C38.5331 5.83228 37.8591 5.58485 37.1671 5.60509C36.4705 5.58553 35.7943 5.84641 35.2843 6.33145C35.0374 6.5625 34.8424 6.84534 34.7125 7.16058C34.5827 7.47583 34.5211 7.81602 34.532 8.15784C34.5245 8.4975 34.5885 8.83484 34.7197 9.14704C34.8509 9.45924 35.0463 9.73902 35.2925 9.96743C35.8025 10.4525 36.4787 10.7133 37.1754 10.6938C37.5265 10.7056 37.8763 10.6443 38.2035 10.5137C38.5308 10.383 38.8285 10.1857 39.0787 9.93384C39.3217 9.68954 39.5131 9.39696 39.6411 9.07417C39.7691 8.75138 39.8309 8.40522 39.8228 8.05707C39.8316 7.72379 39.7671 7.39274 39.6341 7.08829C39.5011 6.78383 39.3029 6.51373 39.0541 6.29786Z" fill="black"/>
<path d="M54.1209 29.1214C53.4548 29.6378 52.6338 29.902 51.7982 29.8688C51.4639 29.8923 51.1285 29.8426 50.8144 29.7232C50.5003 29.6037 50.2149 29.4172 49.977 29.176C49.5238 28.6121 49.2988 27.8927 49.348 27.1649V18.5788H54.0798V15.2199H49.3563V11.0801H45.2206V15.2031H42.3101V18.562H45.2206V27.2657C45.2206 29.2474 45.7496 30.7561 46.8075 31.7917C47.8654 32.8274 49.3727 33.3466 51.3295 33.3494C52.073 33.352 52.8133 33.2489 53.5289 33.0429C54.1742 32.866 54.7773 32.5559 55.3007 32.1318L54.1209 29.1214Z" fill="black"/>
<path d="M71.4075 16.7943C70.0372 15.5208 68.0461 14.884 65.4342 14.884C64.0361 14.8767 62.6439 15.0704 61.2986 15.4592C60.0985 15.79 58.9684 16.3436 57.9646 17.0924L59.609 20.17C60.3284 19.5752 61.1533 19.1276 62.0386 18.8517C62.9801 18.54 63.9635 18.3799 64.9533 18.3772C66.4085 18.3772 67.5048 18.7159 68.242 19.3933C68.6235 19.7655 68.9205 20.2184 69.1123 20.7204C69.304 21.2223 69.3859 21.761 69.352 22.2987V22.5674H64.7724C62.2345 22.5674 60.3764 23.0572 59.1979 24.0369C58.6249 24.5013 58.1664 25.0965 57.8594 25.7746C57.5524 26.4527 57.4054 27.1949 57.4302 27.9416C57.4195 28.9348 57.7064 29.9075 58.2524 30.7295C58.8245 31.5809 59.6213 32.2492 60.5504 32.6566C61.6468 33.1376 62.8312 33.3738 64.0242 33.3494C65.1861 33.3805 66.3418 33.1675 67.4198 32.7238C68.3014 32.3528 69.0554 31.7231 69.5863 30.9142V33.1101H73.4918V22.5338C73.4808 19.9643 72.786 18.0511 71.4075 16.7943ZM69.352 27.4882C69.0467 28.3734 68.4416 29.1179 67.6459 29.5875C66.8088 30.0826 65.8547 30.3338 64.8875 30.3138C64.0156 30.364 63.151 30.1271 62.4209 29.6378C62.136 29.4334 61.9053 29.1599 61.7496 28.8418C61.5939 28.5237 61.518 28.1711 61.5288 27.8156C61.5288 26.2146 62.7196 25.4141 65.1013 25.4141H69.3684L69.352 27.4882Z" fill="black"/>
<path d="M78.7705 8.03613V33.1101H82.9061V8.03613H78.7705Z" fill="black"/>
<path d="M88.3285 15.0645V33.1185H92.4641V15.0645H88.3285ZM92.2997 6.29786C91.7787 5.83228 91.1047 5.58485 90.4127 5.60509C89.7161 5.58553 89.0399 5.84641 88.5299 6.33145C88.2837 6.55987 88.0883 6.83964 87.9571 7.15184C87.8259 7.46404 87.7619 7.80138 87.7694 8.14104C87.7619 8.4807 87.8259 8.81805 87.9571 9.13025C88.0883 9.44245 88.2837 9.72222 88.5299 9.95064C89.0399 10.4357 89.7161 10.6966 90.4127 10.677C90.7639 10.689 91.1138 10.6279 91.4411 10.4972C91.7683 10.3666 92.0661 10.1692 92.3161 9.91705C92.5591 9.67274 92.7505 9.38016 92.8785 9.05737C93.0065 8.73458 93.0683 8.38843 93.0602 8.04028C93.0676 7.71047 93.0031 7.3831 92.8716 7.08179C92.7401 6.78048 92.5448 6.51274 92.2997 6.29786Z" fill="black"/>
<path d="M129.208 8.17883V33.215H133.319V8.17883H129.208Z" fill="black"/>
<path d="M151.456 16.9035C150.083 15.6439 148.09 14.9931 145.496 14.9931C144.099 14.9856 142.708 15.1793 141.364 15.5683C140.163 15.9021 139.032 16.4601 138.03 17.2142L139.646 20.2834C140.366 19.693 141.189 19.2471 142.071 18.9692C143.017 18.6562 144.004 18.4961 144.998 18.4948C146.453 18.4948 147.547 18.8348 148.287 19.5066C148.668 19.8778 148.966 20.33 149.157 20.8313C149.349 21.3326 149.431 21.8708 149.397 22.4078V22.6724H144.834C142.301 22.6724 140.444 23.1622 139.263 24.1419C138.692 24.6056 138.235 25.1996 137.928 25.8762C137.622 26.5527 137.475 27.2932 137.5 28.0382C137.491 29.0297 137.778 30.0004 138.322 30.8218C138.889 31.6683 139.676 32.3358 140.595 32.749C142.79 33.6491 145.237 33.6731 147.448 32.8162C148.33 32.4481 149.085 31.8194 149.615 31.0108V33.2024H153.516V22.6724C153.521 20.0972 152.835 18.1743 151.456 16.9035ZM149.401 27.5805C149.096 28.4647 148.493 29.209 147.699 29.6798C146.86 30.1709 145.907 30.4205 144.941 30.402C144.069 30.4525 143.204 30.2155 142.474 29.726C142.189 29.5216 141.958 29.248 141.803 28.9299C141.647 28.6119 141.571 28.2593 141.582 27.9038C141.582 26.3083 142.771 25.5106 145.15 25.5106H149.393L149.401 27.5805Z" fill="black"/>
<path d="M171.016 15.1989L165.45 28.5253L159.917 15.1989H155.604L163.304 33.2823L163.004 34.0086C162.725 34.747 162.277 35.4063 161.697 35.9316C161.183 36.32 160.555 36.5171 159.917 36.49C159.352 36.4885 158.793 36.373 158.272 36.1499C157.752 35.9406 157.276 35.6313 156.87 35.2388L155.226 38.3458C155.838 38.8989 156.558 39.3125 157.339 39.5592C158.181 39.843 159.063 39.9848 159.95 39.979C161.372 40.0196 162.77 39.6009 163.945 38.7824C165.047 37.9805 165.98 36.6033 166.757 34.6468L175 15.1989H171.016Z" fill="black"/>
<path d="M0.12315 10.7734H4.8631L4.711 10.4585C4.57707 10.1844 4.4895 9.88915 4.452 9.58522C4.44371 9.50006 4.44371 9.41427 4.452 9.3291C4.44792 9.28301 4.44792 9.23664 4.452 9.19055C4.47715 8.2089 4.79758 7.25895 5.36975 6.46977C5.94193 5.68059 6.73811 5.09044 7.65013 4.77949C8.56215 4.46855 9.54578 4.45189 10.4674 4.73178C11.389 5.01167 12.2039 5.57453 12.8014 6.3439C13.0654 6.78599 13.3522 7.21345 13.6606 7.62448C13.8462 7.88969 14.0911 8.10584 14.375 8.25497C14.6588 8.40409 14.9734 8.48188 15.2926 8.48188C15.6118 8.48188 15.9264 8.40409 16.2103 8.25497C16.4942 8.10584 16.7391 7.88969 16.9247 7.62448C17.3933 6.9527 17.7798 6.39009 17.7798 6.3439C18.3761 5.57571 19.1892 5.01325 20.1089 4.7327C21.0287 4.45215 22.0106 4.46706 22.9218 4.77542C23.8329 5.08378 24.6293 5.67069 25.203 6.45665C25.7767 7.24262 26.1 8.18968 26.1292 9.16956C26.1292 9.21994 26.1292 9.27452 26.1292 9.3291C26.1354 9.41436 26.1354 9.49997 26.1292 9.58522C26.0887 9.88957 25.9984 10.1848 25.862 10.4585L25.7098 10.7734H30.4416C30.4981 10.4176 30.5338 10.0587 30.5485 9.69858C30.5568 9.57557 30.5568 9.45212 30.5485 9.3291C30.5485 9.13177 30.5485 8.90924 30.5238 8.7371C30.42 7.02337 29.8538 5.3724 28.888 3.96697C27.9223 2.56154 26.5945 1.45646 25.0518 0.774068C23.5091 0.0916758 21.8116 -0.141414 20.1472 0.100603C18.4828 0.34262 16.9165 1.0503 15.6215 2.14531C15.5023 2.25028 15.3831 2.34684 15.2721 2.45601C15.1611 2.34684 15.046 2.25028 14.9268 2.14531C13.6327 1.04956 12.067 0.340862 10.403 0.0976357C8.73899 -0.145591 7.04153 0.086145 5.49848 0.767196C3.95544 1.44825 2.62698 2.55205 1.66014 3.95645C0.693297 5.36086 0.125772 7.01109 0.0203756 8.72451C0.0203756 8.91764 0.0203756 9.12337 0.0203756 9.3291C0.0120883 9.45212 0.0120883 9.57557 0.0203756 9.69858C0.0336488 10.0586 0.0679681 10.4176 0.12315 10.7734Z" fill="#26C196"/>
<path d="M23.6257 14.9932L21.8456 18.6333L17.5702 27.3706C17.358 27.8048 17.0315 28.1699 16.6274 28.4252C16.2233 28.6804 15.7576 28.8156 15.2824 28.8156C14.8073 28.8156 14.3416 28.6804 13.9375 28.4252C13.5334 28.1699 13.2069 27.8048 12.9947 27.3706L8.71105 18.6333L6.931 14.9932H1.89917C1.96906 15.0855 2.03483 15.1821 2.10883 15.2703L9.04404 29.3901C9.6249 30.5746 10.517 31.5705 11.6206 32.2666C12.7242 32.9626 13.9957 33.3313 15.2927 33.3313C16.5898 33.3313 17.8612 32.9626 18.9648 32.2666C20.0684 31.5705 20.9605 30.5746 21.5414 29.3901L28.4396 15.2829C28.5177 15.1863 28.5876 15.0855 28.6616 14.989L23.6257 14.9932Z" fill="#141414"/>
<path d="M126.285 17.844C126.286 19.1718 125.925 20.4738 125.242 21.6034C124.558 22.7331 123.58 23.6456 122.417 24.2384L106.495 32.3669V27.2908L120.452 20.1826C120.878 19.9663 121.236 19.6328 121.487 19.2196C121.738 18.8065 121.871 18.33 121.871 17.844C121.871 17.3579 121.738 16.8815 121.487 16.4684C121.236 16.0552 120.878 15.7217 120.452 15.5054L105.874 7.97729C105.485 7.77406 105.05 7.67801 104.613 7.69863C104.176 7.71924 103.752 7.85581 103.383 8.09485C103.009 8.32484 102.7 8.65085 102.487 9.04048C102.274 9.43011 102.165 9.86982 102.17 10.3159V40H97.7302V10.3117C97.7279 9.09238 98.0314 7.89276 98.6119 6.82726C99.1924 5.76176 100.03 4.8659 101.046 4.22511C102.062 3.58432 103.221 3.21998 104.414 3.16682C105.607 3.11366 106.793 3.37346 107.86 3.92145L122.417 11.4537C123.581 12.0435 124.561 12.9548 125.245 14.0842C125.929 15.2137 126.289 16.5161 126.285 17.844Z" fill="#1778F2"/>
</svg>
