<svg width="92" height="91" viewBox="0 0 92 91" fill="none" xmlns="http://www.w3.org/2000/svg">
<path d="M46 0L54.6075 5.50469L64.7099 3.97691L70.3343 12.5067L80.1847 15.22L81.8535 25.3L89.7486 31.7852L87.1732 41.6725L91.748 50.8083L85.3737 58.7933L85.8372 69L76.7662 73.702L73.0381 83.2148L62.8389 83.8208L55.5639 90.9948L46 87.4L36.4361 90.9948L29.1611 83.8208L18.9619 83.2148L15.2338 73.702L6.16283 69L6.62626 58.7933L0.251991 50.8083L4.82679 41.6725L2.2514 31.7852L10.1465 25.3L11.8153 15.22L21.6657 12.5067L27.2901 3.97691L37.3925 5.50469L46 0Z" fill="#FFA799"/>
</svg>
